<?xml version="1.0" encoding="utf-8"?>
<!-- Generator: Adobe Illustrator 15.0.0, SVG Export Plug-In . SVG Version: 6.00 Build 0)  -->
<!DOCTYPE svg PUBLIC "-//W3C//DTD SVG 1.1 Basic//EN" "http://www.w3.org/Graphics/SVG/1.1/DTD/svg11-basic.dtd">
<svg version="1.1" baseProfile="basic" id="Layer_1"
	 xmlns="http://www.w3.org/2000/svg" xmlns:xlink="http://www.w3.org/1999/xlink" x="0px" y="0px" width="82.318px"
	 height="38.273px" viewBox="0 0 82.318 38.273" xml:space="preserve">
<line fill="#451FFF" x1="192" y1="-36" x2="192" y2="-2"/>
<path d="M73.341,6.517c-1.176,0.062-2.504,0.416-3.413,1.208c-0.673,0.586-1.705,1.796-1.773,2.72
	c-0.032,0.438,0.288,1.38,0.058,1.729c-0.186,0.281-0.826,0.402-1.111,0.256c-0.625-0.32-0.679-1.635-0.86-2.227
	c-0.312-1.017-0.79-2.135-1.41-2.994c-0.623-0.863-1.376-1.465-2.177-2.163c-0.643-0.56-1.309-1.093-2.038-1.538
	c-0.823-0.502-1.791-0.716-2.679-1.069C55.98,1.66,53.655,1.94,51.682,2.48c-1.605,0.44-3.336,1.182-5.01,1.149
	c-1.047-0.02-2.161,0.017-3.119-0.466c-0.71-0.358-1.351-1.458-2.24-1.085c-0.449,0.188-0.939,0.546-1.384,0.779
	c-0.28,0.146-0.518,0.357-0.749,0.569c-0.833,0.766-1.251,1.463-2.39,1.061c-3.812-1.348-7.806-2.669-11.877-2.796
	c-3.985-0.124-8.546,0.079-12.153,1.953C9.27,5.458,6.318,7.547,3.908,10.732c-1.217,1.608-2.347,3.598-2.693,5.611
	c-0.388,2.11-0.414,3.946-0.271,6.089c0.119,1.793,1.004,3.436,1.772,5.036c0.756,1.577,1.91,3.336,3.329,4.408
	c1.847,1.395,3.638,2.467,5.761,3.382c1.022,0.441,2.033,0.767,3.141,0.956c0.427,0.071,0.842,0.155,1.274,0.188
	c0.354,0.027,1.223-0.103,1.51,0.1c0.009,0.003,0.019,0.006,0.028,0.009c1.442,0.251,3.333-0.018,4.762-0.294
	c2.228-0.43,4.185-1.276,6.158-2.368c1.423-0.788,2.655-1.869,3.775-3.047c0.7-0.737,1.399-1.426,1.893-2.327
	c0.157-0.286,0.933-2.586,0.476-2.541c-0.855,0.086-0.379,2.307-1.699,1.233c-0.574-0.468,0.301-1.739,0.546-2.238
	c0.25-0.509,0.505-0.513,1.037-0.276c0.534,0.237,0.125,0.589,0.429,0.9c0.269,0.275,0.508-0.284,0.696-0.371
	c0.331-0.154,0.809,0.192,1.1,0.331c1.526,0.73,3.119,1.433,4.736,1.94c0.488,0.153,1,0.337,1.475,0.531
	c0.217,0.092,1.059,0.267,0.577,0.604c-0.57,0.387-1.104,0.756-1.623,1.237c-0.868,0.805-0.775,1.654-0.876,2.75
	c-0.095,1.021,0.886,2.026,1.532,2.691c1.278,1.317,3.932,1.675,5.568,0.955c0.921-0.407,1.619-0.79,2.392-1.452
	c0.768-0.658,1.294-1.421,1.889-2.249c0.405-0.562,0.676-1.437,0.907-2.085c0.356-0.999,0.839-2.063,0.853-3.147
	c0-0.929,0.889-0.894,1.587-1.111c1.007-0.314,1.998-0.662,2.967-1.077c0.672-0.288,1.21-0.716,1.945-0.657
	c0.598,0.048,1.191,0.129,1.786,0.191c4.181,0.432,8.861,0.054,12.625-1.91c0.755-0.394,1.44-0.859,2.051-1.44
	c0.663-0.63,1.6-1.106,2.083-1.906c0.489-0.812,0.929-1.559,1.315-2.429c0.367-0.826,0.504-1.604,0.653-2.497
	C82.125,9.941,77.533,6.297,73.341,6.517z M51.062,4.71c2.363-3.072,6.849-2.109,9.746-0.305c1.738,1.083,2.913,2.48,3.861,4.292
	c0.45,0.859,0.625,1.844,0.845,2.779c0.319,1.359-0.357,1.409-1.581,1.591c-1.988,0.296-3.978,0.55-5.971,0.8
	c-1.056,0.133-2.112,0.177-3.163,0.331c-0.736,0.108-1.941,0.518-2.285-0.39c-0.262-0.685-0.797-1.416-1.205-2.024
	c-0.293-0.437-0.487-0.939-0.751-1.394c-0.032-0.056-0.711-0.957-0.691-0.297c0.03,1.016,3.095,4.02,1.651,4.666
	c-0.82,0.36-1.68-1.282-2.131-1.822c-0.245-0.292-1.708-2.724-1.43-2.946c0.414-0.331,0.964-0.42,1.466-0.503
	c0.763-0.126,0.955-0.317,1.566,0.287c0.971,0.953,2.252,1.333,3.578,1.106c1.649-0.282,2.328-1.748,2.086-3.262
	c-0.104-0.649-0.415-1.166-1.162-1.21c-0.538-0.032-0.786,0.344-1.244,0.479c-0.628,0.186-2.487,1.477-3.091,1.006
	c-0.416-0.325-0.652-1.234-0.663-1.743C50.481,5.573,50.716,5.16,51.062,4.71z M34.77,16.922c-0.567,0.407-0.935-0.067-1.123-0.527
	c-0.214-0.524-0.834-1.377-0.111-1.769c0.876-0.475,1.261-0.039,1.693,0.725c0.096,0.169,0.66,1.503,0.542,1.503
	c-0.408-0.004-0.668-0.862-0.79-1.125c-0.109-0.235-0.129-0.694-0.448-0.743c-0.151-0.022-0.206,0.144-0.209,0.262
	C34.317,15.599,35.13,16.744,34.77,16.922z M31.966,22.625c-0.565,0.663-0.585-1.042-0.561-1.17c0.076-0.395,0.196-0.841,0.674-0.84
	c0.708,0.002,0.472,0.146,0.331,0.644C32.289,21.685,32.262,22.271,31.966,22.625C31.966,22.625,32.08,22.488,31.966,22.625z
	 M31.07,25.182c-0.042,0.043-0.024,0.025-0.001,0.001c-0.374,0.384-1.033-0.292-0.892-0.737c0.082-0.259,0.403-1.049,0.659-1.187
	c0.305-0.164,0.975,0.066,0.904,0.478c-0.078,0.451-0.347,1.102-0.667,1.442C31.105,25.143,31.148,25.099,31.07,25.182z
	 M20.079,27.44C20.014,27.559,20.054,27.485,20.079,27.44c-0.406,0.73-1.927-0.404-2.473-0.417c-0.28-0.003-2.108-0.582-1.917-0.929
	c0.365-0.664,2.01,0.183,2.513,0.355C18.609,26.589,20.425,26.796,20.079,27.44C20.093,27.415,20.102,27.399,20.079,27.44z
	 M12.763,22.06c0.195,0.303-0.135,0.427-0.371,0.282c-0.281-0.172-0.566-0.433-0.776-0.688c-0.529-0.641,0.465-0.579,0.808-0.471
	c0.184,0.058,0.344-0.206,0.5-0.297c0.308-0.181,0.493,0.204,0.678,0.351c0.641,0.534,1.014,1.434,1.481,2.108
	c0.374,0.539,1.131,1.153,0.66,1.816c-0.525,0.756-0.702-0.579-0.883-0.979c-0.263-0.581-0.818-1.158-1.192-1.689
	c-0.186-0.264-0.368-0.667-0.6-0.887C12.661,21.222,12.547,21.731,12.763,22.06z M47.448,10.572
	C47.463,10.698,47.456,10.633,47.448,10.572c-0.006,0.057-0.012,0.112-0.018,0.168c-0.109,0.158-0.523-0.301-0.479-0.453
	C47.052,9.95,47.43,10.432,47.448,10.572C47.441,10.516,47.436,10.466,47.448,10.572z M46.986,12.229
	c0.409,0.398,0.765,0.833,1.209,1.196c0.37,0.302,0.915,0.877,1.052,1.347c0.165,0.564-0.19,0.426-0.562,0.555
	c-0.077,0.026-0.04,0.014-0.001,0c-0.986,0.338-1.526-1.006-1.847-1.764c-0.214-0.505-0.492-0.969-0.713-1.465
	c-0.016-0.035-0.409-1.02-0.337-0.996C46.211,11.253,46.665,11.911,46.986,12.229z M49.652,15.796
	c0.294,0.136,0.556,0.41,0.689,0.706c0.16,0.355,0.598,0.764,0.598,1.184c-0.003,0.447-1.45-0.85-1.679-1.047
	c-0.118-0.102-0.604-0.427-0.483-0.658C48.87,15.804,49.471,15.714,49.652,15.796z M46.955,14.684
	c-0.155,0.218-2.345-1.614-2.542-1.781c-0.394-0.333-1.099-0.734-1.331-1.204c-0.184-0.372,0.614-0.513,0.812-0.583
	c1.049-0.368,1.18-0.126,1.631,0.849C45.678,12.293,47.131,14.452,46.955,14.684z M44.564,15.625
	c-0.139,0.317-0.679-0.558-0.679-0.724C43.886,14.858,44.765,15.177,44.564,15.625z M43.519,10.735
	c-1.022,0.495-1.828-1.271-2.382-1.958c-0.314-0.391-0.597-0.806-0.915-1.196c-0.047-0.057-0.683-0.789-0.197-0.612
	c1.225,0.446,2.289,1.351,3.372,2.046c0.391,0.251,1.192,0.639,1.332,1.133C44.845,10.559,43.77,10.615,43.519,10.735z
	 M43.323,15.083c0.146,0.297,0.556,0.748,0.036,0.881c-0.322,0.083-0.978,0.183-1.233-0.107c-0.395-0.44-0.758-1.116-0.977-1.664
	c-0.132-0.331-0.286-0.779-0.573-1.008c-0.417-0.333-0.158,0.614-0.133,0.681c0.158,0.413,1.246,1.966,0.917,2.218
	c-0.81,0.699-1.763-0.04-1.979-0.851c-0.163-0.593-0.483-1.106-0.73-1.663c-0.23-0.519,0.156-0.607,0.552-0.823
	c0.839-0.457,1.533-0.671,2.319-0.066C42.421,13.374,42.831,14.081,43.323,15.083z M39.975,11.838
	c-0.353,0.306-0.821-0.211-1.028-0.454c-0.108-0.126-0.863-0.964-0.824-1.091C38.114,10.319,40.458,11.417,39.975,11.838z
	 M38.566,11.675c0.339,0.515-0.11,0.687-0.557,0.81c-0.064,0.018-0.129,0.035-0.191,0.051c-0.623,0.167-0.888-0.22-1.241-0.688
	c-0.383-0.511-0.864-0.907-1.209-1.437c-0.489-0.752-1.839-1.697-0.447-2.283c0.611-0.257,2.185,1.501,2.447,1.986
	C37.683,10.698,38.205,11.128,38.566,11.675z M35.283,10.734c0.328,0.419,0.493,0.947,0.862,1.346
	c0.298,0.326,0.622,0.848,0.05,1.082c0.115-0.047,0.234-0.096,0,0c-0.043,0.018-0.065,0.027-0.085,0.035
	c0.023-0.009,0.052-0.021,0.085-0.035c-0.869,0.355-1.445-0.8-1.923-1.42c-0.203-0.264-1.811-2.052-1.176-2.157
	c0.24-0.044,0.573-0.494,0.812-0.359c0.134,0.076,0.282,0.374,0.392,0.485C34.63,10.045,34.995,10.366,35.283,10.734z
	 M33.161,12.407c0.005,0.152-0.611-0.054-0.354-0.278C32.923,12.034,33.163,12.299,33.161,12.407z M32.622,11.803
	c0.093-0.02,0.156,0.016,0.188,0.107C32.805,12.065,32.528,11.885,32.622,11.803z M33.251,14.082
	c0.044-0.031,0.087-0.061-0.001,0.002c-0.089,0.062-0.047,0.032-0.002,0.001c-0.818,0.565-1.292-0.764-1.795-1.291
	c-0.464-0.487-1.036-0.974-0.542-1.602c0.442-0.562,1.064,0.69,1.316,0.99C32.637,12.668,34.049,13.517,33.251,14.082z
	 M32.853,17.15c-0.42-0.002-0.666,0.188-0.94-0.257c-0.148-0.242-0.275-0.496-0.401-0.749c-0.22-0.441-0.265-0.648,0.24-0.944
	c0.667-0.391,0.915-0.136,1.156,0.498C33.002,15.948,33.498,17.157,32.853,17.15C32.853,17.15,32.942,17.151,32.853,17.15z
	 M29.464,21.477C29.411,21.521,29.437,21.499,29.464,21.477c-0.334,0.277-0.432,0.025-0.516-0.347
	c-0.047-0.21-0.479-0.691-0.484-0.172c-0.002,0.393-1.236-0.022-0.352-0.804c0.249-0.22,1.517-0.043,1.736,0.163
	C30.018,20.478,29.616,21.347,29.464,21.477C29.492,21.453,29.519,21.431,29.464,21.477z M28.802,23.138
	c-0.163,0.182-0.086,0.097-0.003,0.003c-0.805,0.897-0.775-0.244-0.417-0.799c0.614-0.954,1.022,0.116,0.422,0.794
	C28.893,23.035,28.985,22.932,28.802,23.138z M25.493,25.111c0.438-0.453,0.937-0.882,1.454-1.243
	c0.482-0.337,1.179,0.133,0.753,0.64c-0.433,0.515-1.105,0.908-1.647,1.301c-0.074,0.054-0.038,0.027,0,0
	C25.566,26.161,25.138,25.478,25.493,25.111z M20.854,16.947c-0.032,0.014-0.023,0.01-0.001,0c-0.246,0.106-1.085-0.147-0.714-0.341
	c0.459-0.24,1.56-0.039,0.718,0.339C20.913,16.92,21.042,16.863,20.854,16.947z M16.8,24.055c-0.534,0.475-1.938-1.905-2.272-2.352
	c-0.255-0.342-0.886-1.108-0.119-1.111c0.414,0.004,0.571,0.235,0.912,0.424c0.295,0.164,0.195-0.33,0.25-0.485
	c0.222-0.622,0.815,0.405,0.898,0.529c0.383,0.569,0.914,0.997,1.188,1.64c0.208,0.485-1.061,0.227-1.065-0.344
	c-0.003-0.28-0.986-0.889-0.987-0.856C15.612,22.125,17.355,23.575,16.8,24.055z M13.777,19.459
	c-0.013-0.454-0.135-0.976-0.045-1.423c0.08-0.401,0.514-0.219,0.604,0.073c0.162,0.521,0.159,1.096-0.068,1.601
	C14.055,20.2,13.786,19.779,13.777,19.459z M21.372,13.927c-0.234,0.401-1.327,0.513-1.746,0.604
	c-0.43,0.092-0.197,0.042-0.051,0.011c-0.402,0.086-0.875,0.186-1.283,0.112c-0.317-0.058-0.141-0.388,0.046-0.479
	c0.342-0.167,0.893-0.272,1.27-0.318c0.013-0.001,0.806-0.239,0.463-0.377c-0.55-0.223-1.454,0.435-2.044,0.45
	c-0.623,0.016-0.849-0.608-0.16-0.774c0.488-0.118,3.61-1.188,3.583-0.5c-0.008,0.226-0.571,0.713-0.542,0.745
	C21.032,13.533,21.536,13.646,21.372,13.927z M20.785,16.034C20.785,16.034,21.005,15.941,20.785,16.034
	c-0.292,0.123-0.71,0.186-1.021,0.103c-0.209-0.056-0.133-0.292-0.27-0.417c-0.105-0.097-0.721-0.309-0.383-0.534
	c0.266-0.177,0.652-0.193,0.954-0.273c0.227-0.061,1.017-0.492,1.141-0.207c0.117,0.28-0.175,0.456-0.391,0.544
	C19.804,15.653,21.801,15.606,20.785,16.034z M20.057,18.256c-0.047,0.372-0.549,0.094-0.28-0.116
	C19.912,18.034,20.083,18.067,20.057,18.256z M19.262,17.994c-0.359,0.478-0.542-0.362-0.179-0.594
	C19.412,17.189,19.369,17.854,19.262,17.994z M17.73,15.379c0.551,0.217-0.212,1.17,0.192,1.237c0.35,0.057,0.408-0.563,0.81-0.203
	c0.171,0.149,0.231,0.357,0.158,0.573c-0.101,0.3-0.451,0.711-0.699,0.929c-0.567,0.489-0.93-0.396-0.878-0.396
	c0.41,0,0.498-1.175-0.162-0.49c-0.284,0.292-0.543,0.869-1.082,0.441c-0.398-0.316,0.388-0.918,0.568-1.1
	C16.844,16.163,17.38,15.242,17.73,15.379z M18.426,19.031c0.001,0.106-0.05,0.142-0.154,0.105
	C18.271,19.032,18.322,18.997,18.426,19.031z M17.722,19.175c-0.275,0.24-0.542-0.267-0.264-0.384
	C17.709,18.684,17.937,18.988,17.722,19.175z M16.304,18.788c0.132-0.559,0.72,0.081,0.515,0.546c0.032-0.073,0.097-0.22,0,0
	c-0.024,0.055-0.016,0.036,0,0C16.578,19.879,16.241,19.053,16.304,18.788z M16.63,15.639c-0.39,0.486-0.678,0.931-1.15,1.348
	c0.032-0.027,0.056-0.047-0.014,0.014c-0.074,0.062-0.046,0.038-0.011,0.008c-0.164,0.131-0.963,0.565-0.96,0.014
	c0.007-0.292,0.601-0.734,0.78-0.947c0.43-0.512,0.833-1.041,1.265-1.551c0.152-0.179,0.497-0.373,0.573,0.013
	C17.192,14.938,16.861,15.351,16.63,15.639z M15.16,18.131c0.714,0.001,0.809,1.005,0.516,1.496
	c-0.255,0.406-0.852,0.017-0.763-0.392C14.965,18.999,14.733,18.131,15.16,18.131z M16.935,20.87
	c-0.359-0.85,0.439-0.569,0.417-0.499c-0.169,0.56,0.738,0.467,0.5,0.009c-0.26-0.52,0.781,0.02,0.832-0.017
	c0.322-0.233,0.168-0.567,0.702-0.207c0.721,0.48,0.226-0.22,0.527-0.422c0.134-0.09,1.047-0.211,0.998,0.114
	c-0.01,0.065-0.544,0.246-0.601,0.505c-0.071,0.333-0.32,0.636-0.562,0.862c-0.415,0.385-1.046,0.276-1.283,0.814
	C18.035,23.008,17.126,21.322,16.935,20.87z M21.959,25.11c0.511-0.072,2.589-0.681,2.57,0.214c-0.009,0.41-1.762,0.477-2.088,0.549
	c-0.222,0.049-2.316,0.364-1.379-0.54C21.26,25.143,21.712,25.145,21.959,25.11z M26.199,17.616
	c0.215-0.202,1.246-0.634,1.389-0.298c0.331,0.775-0.254,0.26-0.54,0.262c-0.447,0.002-0.922,0.847-1.52,0.508
	c-0.187-0.103-0.61,0.392-0.778,0.181C24.657,18.152,26.086,17.719,26.199,17.616z M24.992,16.839
	c-0.067-0.154,0.312-0.225,0.31,0.007C25.302,17.002,25.03,16.922,24.992,16.839z M30.415,14.266
	c-0.355-0.445-1.343-1.185-0.921-1.792c0.548-0.788,1.076-0.009,1.441,0.465c0.203,0.264,1.442,1.482,0.874,1.72
	c-0.048,0.02-0.025,0.01,0,0C31.126,14.942,30.833,14.79,30.415,14.266z M31.238,17.296c-0.486,0.381-1.165-1.241-0.688-1.479
	C30.936,15.624,31.488,17.101,31.238,17.296z M29.99,15.118c-0.589,0.58-2.364-1.372-1.44-1.835
	C28.961,13.077,30.254,14.863,29.99,15.118z M30.108,17.44c-0.554,0.676-1.22-0.788-0.79-1.127
	C29.859,15.89,30.444,17.034,30.108,17.44z M28.765,15.688c-0.56,0.572-1.819-0.994-1.335-1.452
	C27.845,13.844,28.94,15.501,28.765,15.688z M28.849,17.495c-0.12,0.7-0.805-0.14-0.779-0.489
	C28.117,16.363,28.94,16.961,28.849,17.495z M27.428,16.293c-0.481,0.438-1.458-0.731-1.138-1.05
	C26.792,14.744,27.786,15.963,27.428,16.293z M26.292,16.628c0-0.024,0-0.044,0,0.001c0,0.067-0.001,0.032,0,0.001
	c-0.007,0.345-1.176-0.683-0.608-0.682C25.838,15.95,26.289,16.477,26.292,16.628z M26.348,19.936
	c0.002,0.129-0.37,0.123-0.213-0.093C26.249,19.764,26.32,19.795,26.348,19.936z M26.293,18.829c0.064-0.095,0.376-0.013,0.4,0.103
	C26.745,19.17,26.197,18.972,26.293,18.829z M26.156,21.202c0.318-0.335,0.817,0.119,0.503,0.389
	C26.201,21.992,25.707,21.675,26.156,21.202z M26.938,19.793c0.615-0.259,0.66,0.388,0.356,0.774
	C26.906,21.089,26.44,19.998,26.938,19.793z M23.917,15.062c0.12-0.268,0.9,0.234,0.896,0.454
	C24.812,15.696,23.824,15.272,23.917,15.062z M24.64,19.475c-0.067,0.12-0.132,0.127-0.195,0.023
	C24.443,19.352,24.663,19.414,24.64,19.475z M24.22,17.261c-0.117-0.104,0.233-0.247,0.233-0.05
	C24.4,17.316,24.323,17.333,24.22,17.261z M24.077,16.055c-0.173,0.245-0.814-0.162-0.649-0.441
	C23.534,15.435,24.144,15.962,24.077,16.055z M23.911,21.104c0.591,0.27,0.958,0.876,1.646,1.007
	c0.982,0.186-0.311,0.883-0.521,1.056c-0.881,0.714-0.85-0.319-1.155-0.925c-0.163-0.314-0.186-0.689-0.328-1.021
	C23.412,20.891,23.763,21.036,23.911,21.104z M20.909,26.856c0.08-0.254,0.284-0.354,0.524-0.4c0.812-0.156,1.654-0.122,2.467-0.28
	c0.835-0.163,1.715,0.377,0.515,0.696c-0.922,0.245-1.898,0.135-2.833,0.294C21.323,27.208,20.758,27.336,20.909,26.856z
	 M24.988,24.622c-0.097-0.134-0.19-0.387-0.114-0.549c0.21-0.448,0.78-0.943,1.187-1.197c0.285-0.178,0.967,0.137,0.717,0.512
	c-0.261,0.389-0.813,0.66-1.163,0.969C25.495,24.463,25.154,24.852,24.988,24.622z M27.584,22.821
	c-0.619,0.337-1.169-1.377-0.081-1.372C28.348,21.449,28.058,22.555,27.584,22.821z M29.319,19.171
	c-0.212-0.151-0.529,0.092-0.772,0.052c-0.116-0.019-1.351,0.046-1.301-0.216c0,0.002,0.631-0.352,0.662-0.358
	c0.208-0.048,0.271,0.221,0.359,0.343c0.194,0.266,0.278-0.41,0.326-0.463c0.133-0.145,0.343,0.075,0.463,0.124
	c0.389,0.159,0.627-0.738,1.209-0.335c0.266,0.183,0.253,1.075-0.049,1.24C29.851,19.76,29.574,19.353,29.319,19.171z
	 M30.359,20.522c0.131-0.199,0.791-0.252,0.792,0.051c-0.007,0.387-0.324,0.958-0.44,1.335c-0.116,0.402-0.592,0.199-0.607-0.14
	C30.087,21.417,30.159,20.826,30.359,20.522z M31.157,18.082c0.568,0.005,0.7,1.35,0.362,1.614
	C30.69,20.359,30.433,18.076,31.157,18.082z M27.796,8.361c-0.771-0.434-1.261-0.776-0.844-1.676
	c0.412-0.89,3.795,2.527,4.112,3.077c0.069,0.088,0.096,0.184,0.08,0.289C30.791,10.336,28.158,8.564,27.796,8.361z M28.239,9.131
	c0.546,0.292,1.07,0.625,1.622,0.908c0.334,0.172,1.587,0.766,0.715,1.02c-0.879,0.257-1.647-0.401-2.39-0.796
	c-0.239-0.127-2.582-1.459-1.471-1.812C27.062,8.339,27.944,8.974,28.239,9.131z M28.413,10.943
	c0.427,0.262,1.348,0.608,0.754,1.148c-0.707,0.653-1.96-0.447-2.586-0.813c-0.28-0.164-0.807-0.312-0.871-0.682
	c-0.041-0.234,0.008-0.883,0.336-0.903C26.681,9.653,27.881,10.617,28.413,10.943z M27.124,12.184
	c0.124,0.073,1.521,0.819,0.672,1.023c-0.822,0.194-1.354-0.543-2.055-0.873c-0.312-0.147-0.616-0.268-0.535-0.683
	c0.034-0.179,0.084-0.397,0.316-0.319C26.073,11.519,26.626,11.892,27.124,12.184z M26.77,14.133
	c-0.579,0.495-1.217-0.268-1.665-0.561c-0.236-0.154-0.469-0.201-0.528-0.488c-0.044-0.208,0.317-0.408,0.477-0.406
	C25.532,12.687,27.288,13.682,26.77,14.133z M25.649,14.949c-0.291,0.255-0.948-0.229-1.188-0.366
	c-0.175-0.1-0.674-0.74-0.094-0.738C24.675,13.849,25.957,14.683,25.649,14.949z M24.096,12.661
	c-0.299,0.243-1.096,0.261-1.438,0.135c-0.235-0.092-0.618-0.675-0.189-0.779C22.766,11.944,24.949,11.974,24.096,12.661z
	 M22.305,13.12c0.343-0.115,1.981,0.291,1.173,0.642c-0.243,0.106-0.934,0.185-1.143-0.032C22.229,13.62,22.061,13.202,22.305,13.12
	z M22.909,14.807C22.909,14.807,23.109,14.726,22.909,14.807c-0.312,0.127-1.349-0.161-0.798-0.468
	C22.464,14.142,23.552,14.546,22.909,14.807z M22.692,15.531c-0.184,0.158-1,0.105-0.741-0.237
	C22.151,15.031,22.969,15.295,22.692,15.531z M22.361,21.456c-0.017,0.022-0.354,0.328-0.364,0.066
	C21.984,21.204,22.639,21.088,22.361,21.456z M22.397,21.86c0.292,0.079,0.961,0.283,0.365,0.545
	c0.094-0.041,0.173-0.075-0.002,0.001c-0.237,0.103-0.115,0.05-0.005,0.002c-0.364,0.158-0.728,0.253-1.041-0.05
	C21.861,22.23,22.208,21.809,22.397,21.86z M21.723,23.104c0.287-0.332,1.962-0.281,1.49,0.099c0.06-0.048,0.144-0.114-0.001,0.001
	c-0.071,0.056-0.043,0.034-0.002,0.001C22.962,23.396,21.443,23.426,21.723,23.104z M21.903,23.825
	c0.474-0.119,1.425-0.381,1.883-0.118c0.825,0.474-0.469,0.792-0.74,0.829c-0.338,0.044-1.365,0.338-1.668,0.114
	C20.925,24.316,21.663,23.885,21.903,23.825z M21.402,11.554c-0.174,0.293-1.134,0.369-1.448,0.472
	c-0.849,0.28-1.688,0.55-2.575,0.678c-0.175,0.026-0.815,0.154-0.807-0.233c0.007-0.369,0.889-0.497,1.127-0.559
	c1.014-0.262,2.029-0.51,3.043-0.76C21.145,11.053,21.818,10.867,21.402,11.554z M16.672,11.656
	c-0.248,0.061-0.792,0.217-0.86-0.189c-0.044-0.265,0.53-0.415,0.687-0.484c0.343-0.153,0.679-0.235,1.048-0.315
	c1.259-0.271,2.545-0.692,3.828-0.8C21.568,10.733,17.424,11.47,16.672,11.656z M16.268,13.384c0.268,0.35-0.231,0.934-0.405,1.2
	c-0.419,0.642-0.947,1.277-1.518,1.789c-0.965,0.856-0.727,0.044-0.223-0.584c0.559-0.697,1.093-1.341,1.611-2.075
	C15.808,13.607,16.083,13.143,16.268,13.384z M15.609,12.707c-0.097,0.488-0.501,0.919-0.772,1.316
	c-0.346,0.506-0.645,1.032-1.044,1.502c-0.24,0.282-0.595,0.897-0.915,1.048c0.014-0.006,0.02-0.009,0,0c0,0,0,0-0.001,0
	c-0.432,0.199-1.067-0.251-0.635-0.68c0.409-0.402,0.631-0.957,1.03-1.369c0.635-0.635,0.864-1.699,1.496-2.275
	C15.079,11.964,15.699,12.257,15.609,12.707z M12.976,19.862c-0.104,0.166-0.048,0.076-0.005,0.007
	c-0.543,0.863-0.671-0.7-0.674-0.952c-0.005-0.375-0.103-1.12,0.246-1.388c0.74-0.568,0.647,1.973,0.435,2.329
	C13.005,19.814,13.023,19.785,12.976,19.862z M14.087,12.558c-0.664,1.273-1.675,2.525-2.66,3.564
	c-0.162,0.193-1.165,0.088-0.939-0.351c0.235-0.457,0.653-0.815,0.974-1.21c0.578-0.71,1.011-1.58,1.595-2.262
	c0.171-0.198,1.043-1.772,1.287-1.49C14.699,11.211,14.286,12.177,14.087,12.558z M16.725,25.336
	c-0.358-0.359,0.401-0.479,0.579-0.456c0.392,0.05,0.771,0.295,1.167,0.295c0.333,0.003,1.902,0.681,1.837,1.071
	C20.245,26.624,17.105,25.718,16.725,25.336z M17.655,24.446c-0.525-0.413,0.761-0.319,0.919-0.301
	c0.151,0.017,1.254,0.255,1.245,0.229c-0.137-0.376-1.118-0.479-1.36-0.848c-0.372-0.564,1.095-0.058,1.095-0.162
	c0.003-0.349-0.904-0.56-0.422-0.857c0.211-0.131,0.507-0.094,0.745-0.071c-0.048-0.822,0.609-0.679,1.145-0.235
	c0.489,0.406-1.645,0.129-0.423,0.762c0.651,0.343-0.381,0.354-0.568,0.375c-0.428,0.051-0.179,0.342,0.11,0.398
	c0.62,0.116,0.414,0.35,0.197,0.683c-0.191,0.293,0.467,0.531,0.041,0.793C19.804,25.557,18.152,24.837,17.655,24.446z
	 M20.851,29.07c0.435-0.199,1.027-0.162,1.496-0.277c0.644-0.158,1.512-0.548,0.306-0.5c-0.406,0.017-1.682,0.375-1.976,0.061
	c-0.304-0.324,0.339-0.615,0.548-0.684c0.604-0.198,1.221-0.159,1.843-0.208c0.58-0.045,1.273-0.369,1.839-0.299
	c1.923,0.237-1.237,1.075-1.262,1.19c-0.076,0.344,2.457-0.395,2.457,0.392c-0.003,0.664-4.49,0.95-5.215,1.254
	C20.062,30.344,20.3,29.321,20.851,29.07z M26.048,27.203c-0.038-0.377-0.038-0.659,0.256-0.912c0.397-0.33,0.848-0.563,1.225-0.924
	c0.243-0.235,0.718-0.708,1.092-0.704c0.149-0.001,0.604,0.426,0.604,0.576c-0.002,0.155-0.421,0.414-0.53,0.492
	c-0.625,0.449-1.236,0.934-1.865,1.386C26.631,27.261,26.103,27.759,26.048,27.203z M29.114,23.819
	c0.044-0.386,0.16-0.92,0.549-1.094c1.154-0.519,0.198,1.088,0.033,1.403C29.444,24.603,29.071,24.2,29.114,23.819z M32.154,19.542
	c-0.029-0.458-0.058-0.916-0.087-1.374c-0.018-0.292,0.967-0.571,1.127-0.342c0.225,0.322,0.514,1.84,0.168,2.14
	C32.938,20.328,32.184,20.006,32.154,19.542z M35.465,17.592c0.356-0.407,0.944-0.261,1.075,0.253
	c0.101,0.401,0.489,2.065,0.187,2.382c-0.199,0.209-0.779,0.066-0.975-0.08c-0.271-0.202-0.233-0.766-0.265-1.052
	C35.449,18.761,35.198,17.896,35.465,17.592z M37.324,13.347c1.036-0.321,1.088,1.285,1.442,1.915
	c0.086,0.154,0.578,0.811,0.417,1.023c-0.135,0.178-0.486,0.047-0.621,0.244C38.259,16.734,35.32,13.968,37.324,13.347z
	 M41.591,16.851c0.646,0.089,1.272-0.287,1.902-0.371c0.7-0.093,1.525-0.249,2.234-0.193c0.737,0.058,1.296,0.833,1.855,1.266
	c1.496,1.16,3.023,2.254,4.617,3.269c0.576,0.366,1.031,0.85,1.141,1.538c0.059,0.364,0.438,1.805-0.091,1.982
	c-1.38,0.474-3.091-0.344-4.443-0.549c-1.052-0.16-2.271-0.79-3.209-1.274c-1.612-0.833-3.13-1.938-4.483-3.14
	c-0.42-0.373-0.851-0.73-1.262-1.114c-0.211-0.198-0.888-0.767-0.888-1.064C38.965,17.02,41.356,16.82,41.591,16.851z M51.886,8.571
	c0.145-0.528,1.843-0.756,2.271-0.932c0.556-0.228,1.103-0.459,1.304,0.289c0.225,0.837-0.742,1.329-1.401,1.465
	C53.679,9.47,51.713,9.198,51.886,8.571z M39.742,3.85c0.313-0.264,0.633-0.523,0.92-0.816c0.677-0.688,1.096,0.666,1.439,1.085
	c1.118,1.367,2.856,1.579,4.497,1.233c0.645-0.136,1.183-0.149,1.762-0.475c0.428-0.24,1.367-0.836,1.857-0.847
	c0.348-0.007-0.312,1.426-0.361,1.62c-0.244,0.968-0.185,1.588-0.005,2.557c0.146,0.79-2.415,1.317-3.046,1.519
	c-1.036,0.312-2.167-1.166-2.917-1.695c-1.002-0.708-2.168-1.293-3.256-1.859c-0.594-0.308-1.507-0.569-1.941-1.11
	C38.416,4.719,39.55,4.012,39.742,3.85z M37.385,5.842c1.013-0.221,2.119,1.57,2.646,2.223c0.367,0.454,0.715,0.925,1.061,1.396
	c0.162,0.22,0.841,0.903,0.833,1.128c0,0.206-1.441-0.761-1.687-0.937c-0.736-0.526-1.363-1.188-2.09-1.726
	c-0.467-0.346-0.957-0.651-1.391-1.042C36.379,6.546,37.016,5.921,37.385,5.842z M32.925,3.812c0.929,0.371,1.852,0.744,2.803,1.072
	c0.559,0.192,1.495,0.58,0.725,1.147c-0.724,0.571-1.202,0.036-1.859-0.367c-0.735-0.453-1.405-0.923-2.203-1.269
	c-0.383-0.166-3.71-1.36-3.712-1.519C28.68,2.608,32.758,3.746,32.925,3.812z M25.245,3.655c1.337,0.279,2.672,0.598,3.935,1.132
	c1.337,0.565,2.737,1.191,3.969,1.962c0.275,0.169,1.479,0.657,1.138,1.069c-0.383,0.464-0.872,0.934-1.376,1.265
	c-0.712,0.461-1.841-0.994-2.326-1.459c-0.766-0.733-1.597-1.372-2.493-1.958c-1.181-0.773-2.371-1.481-3.732-1.884
	c-0.824-0.244-1.889-0.298-2.638-0.715C22.79,2.923,24.192,3.436,25.245,3.655z M17.964,3.94c1.561-0.015,3.162,0.222,4.674,0.627
	c0.931,0.25,1.804,0.538,2.682,0.937c0.371,0.168,0.85,0.349,1.068,0.722c0.151,0.258-0.136,0.803-0.216,1.057
	c-0.107,0.34-0.189,0.736-0.317,1.06c-0.164,0.415-0.522,0.708-0.523,1.192c-0.006,0.397-0.417,0.776-0.537,1.146
	c-0.134,0.413-0.161,0.666-0.681,0.72c-0.463,0.046-1.522,0.294-1.806-0.228c-0.271-0.499,0.125-1.462,0.217-1.98
	c0.289-1.642-0.593-2.716-1.921-3.514c-0.987-0.594-2.262-0.935-3.414-0.98c-0.307-0.012-3.077,0.248-3.16,0.074
	C13.775,4.237,17.666,3.943,17.964,3.94z M5.93,9.894c0.335-0.34,1.269-1.177,1.715-1.177c0.203,0.004,0.624-0.434,0.785-0.54
	c0.339-0.223,0.687-0.435,1.043-0.628c0.564-0.308,1.167-0.577,1.754-0.843c2.761-1.253,5.786-1.262,8.621-0.256
	c0.739,0.262,1.563,0.919,1.814,1.7c0.307,0.954-0.822,1.338-1.557,1.428c-0.766,0.095-1.575,0.181-2.319,0.394
	c-0.508,0.145-2.027,0.79-2.5,0.499c-0.274-0.168-0.488-0.762-0.714-1.015c-0.304-0.34-0.772-0.502-1.194-0.644
	c-0.885-0.297-1.826-0.248-2.733-0.139C8.724,8.897,7.064,9.939,5.48,10.978C4.418,11.665,5.71,10.116,5.93,9.894z M1.883,18.632
	C1.62,18.25,2.342,16.694,2.47,16.308c0.25-0.76,0.548-1.413,0.991-2.081c0.867-1.306,1.797-2.249,3.081-3.144
	c1.09-0.76,2.242-1.251,3.558-1.472c0.623-0.104,3.358-0.117,3.582,0.635c0.111,0.374-0.956,1.52-1.191,1.835
	c-0.514,0.691-0.991,1.413-1.506,2.106c-0.193,0.26-0.948,1.647-1.298,1.294c-0.421-0.423-0.668-1.037-1.308-1.174
	c-1.103-0.236-2.703-0.123-3.666,0.544c-0.583,0.404-1.26,1.046-1.614,1.663c-0.254,0.442-0.897,1.395-0.897,1.89
	C2.2,18.482,1.962,18.748,1.883,18.632z M3.183,25.437c-0.182,0.269-0.396-0.664-0.412-0.727c-0.19-0.759-0.364-1.526-0.374-2.311
	c-0.02-1.526,0.401-3.214,1.155-4.548c0.597-1.055,2.057-2.596,3.377-2.596c0.603-0.003,1.592-0.28,1.954,0.443
	c0.197,0.394,0.13,0.733,0.651,0.88c0.33,0.093,0.67,0.123,0.998,0.224c0.936,0.289,0.935,0.568,0.981,1.479
	c0.027,0.521,0.387,1.548-0.028,1.947c-0.484,0.466-1.63,0.309-2.259,0.403c-0.419,0.063-1.68,0.477-1.959,0.148
	c-0.559-0.655-0.894-0.854-1.85-0.748c-0.567,0.063-1.212,0.674-1.491,1.143c-0.406,0.684-0.731,1.247-0.773,2.059
	C3.13,23.697,3.429,25.089,3.183,25.437z M11.117,21.943c-0.147,0.4-0.974-0.199-0.821-0.59
	C10.53,20.757,11.243,21.607,11.117,21.943z M9.741,22.211c-0.358,0.369-0.859-0.249-0.652-0.622
	C9.412,21.005,9.995,21.939,9.741,22.211z M8.576,22.666C8.431,22.806,8.53,22.71,8.576,22.666
	c-0.508,0.487-1.286-0.551-0.767-0.909C8.229,21.467,8.859,22.389,8.576,22.666C8.597,22.646,8.607,22.636,8.576,22.666z
	 M6.583,29.85c-0.762-0.758-1.289-1.795-1.778-2.736c-0.661-1.271-0.849-2.569-0.656-3.981c0.095-0.698,0.541-1.973,1.436-1.913
	c0.679,0.049,1.828,1.175,1.99,1.816c0.132,0.523-0.521,1.125-0.699,1.587C6.731,25,6.52,25.427,6.448,25.825
	c-0.193,1.067-0.023,2.179,0.506,3.114c0.138,0.245,1.51,2.333,1.45,2.419C8.254,31.571,6.769,30.034,6.583,29.85z M18.283,34.656
	c-0.498,0.425-1.812,0.146-2.396,0.058c-0.975-0.148-1.86-0.452-2.782-0.793c-1.369-0.507-2.941-1.664-3.809-2.823
	C7.899,29.231,6.813,25.016,9.823,24c1.178-0.397,3.679-0.168,4.181,1.237c0.16,0.448-0.101,1.469,0.471,1.653
	c0.284,0.091,0.582-0.005,0.872,0.017c0.347,0.027,0.685,0.169,1.005,0.294c0.876,0.342,1.769,0.549,2.674,0.798
	c0.219,0.06,0.665,0.062,0.718,0.344c0.07,0.371,0.03,0.905-0.106,1.257c-0.326,0.808-0.453,1.763-0.673,2.607
	C18.795,32.852,18.805,34.204,18.283,34.656z M25.688,32.013c-0.546,0.5-1.034,1.019-1.619,1.478
	c-0.877,0.681-2.621,1.233-3.715,1.348c-0.39,0.039-0.822,0.153-1.17-0.098c-0.161-0.113,0.103-0.773,0.133-0.896
	c0.15-0.607,0.28-1.257,1.058-1.31c1.404-0.095,2.887-0.484,4.278-0.751C24.951,31.726,26.461,31.302,25.688,32.013z M26.462,30.86
	c-0.352,0.449-1.746,0.358-2.275,0.433c-0.535,0.075-1.186,0.324-1.721,0.318c-0.465,0-1.936,0.165-2.205,0.545
	c-0.2,0.271-0.577-0.837-0.193-1.201c0.458-0.434,1.206-0.489,1.785-0.647c0.665-0.182,1.369-0.289,2.053-0.36
	c0.702-0.073,1.502-0.482,2.202-0.427C26.553,29.557,26.686,30.576,26.462,30.86z M33.125,28.252
	c-0.062,0.54-1.159,0.905-1.587,1.092c-0.751,0.329-1.43,0.61-2.224,0.819c-0.703,0.191-1.356-0.006-2.053-0.166
	c-0.441-0.093-0.831-1.56-0.668-1.932c0.259-0.594,1.382-1.271,1.896-1.636c0.185-0.131,1.061-0.98,1.252-0.919
	c0.568,0.183,1.234,0.814,1.716,1.2C31.873,27.049,33.202,27.583,33.125,28.252z M33.083,24.87c-0.171,0.352-0.38,1.158-0.674,1.356
	c-0.645,0.442-1.017-0.5-0.668-0.976c0.279-0.38,0.435-1.192,0.858-1.397C33.163,23.575,33.207,24.615,33.083,24.87z M33.767,21.218
	c-0.197,0.525-0.144,1.188-0.44,1.673c-0.424,0.701-0.821-0.115-0.709-0.586c0.085-0.36,0.26-0.694,0.342-1.052
	c0.036-0.158-0.125-0.307-0.104-0.391C32.943,20.514,33.984,20.642,33.767,21.218z M34.151,17.699c0.61-0.202,0.66,0.468,0.69,0.872
	c0.023,0.309,0.328,1.364,0.084,1.576C33.962,20.977,33.444,17.933,34.151,17.699z M34.987,21.736
	c-0.136,0.542-0.203,1.226-0.492,1.712c-0.464,0.784-0.651-0.585-0.624-0.815c0.032-0.271,0.056-1.505,0.244-1.646
	c0.189-0.143,0.584-0.019,0.77,0.062C35.193,21.183,35.051,21.481,34.987,21.736z M36.999,23.181
	c-0.124,0.429-0.06,0.898-0.189,1.313c0.005-0.017,0.009-0.029,0,0c-0.138,0.445-1.637-0.001-1.704-0.514
	c-0.106-0.813,0.339-1.967,0.696-2.683c0.306-0.613,1.73-0.172,1.622,0.531C37.349,22.319,37.133,22.715,36.999,23.181z
	 M37.39,20.134c-0.043-0.141-0.283-1.67-0.096-1.668c0.473,0,1.13,1.552,1.156,1.915c-0.005-0.071-0.015-0.233,0,0.002
	c0.002,0.042,0.001,0.029,0,0.001C38.473,20.81,37.5,20.493,37.39,20.134z M53.404,28.953c-0.241,0.35-0.248,1.128-0.403,1.546
	c-0.178,0.479-0.453,0.825-0.708,1.259c-0.252,0.427-0.428,0.833-0.725,1.252c-0.157,0.221-0.837,0.752-0.837,0.976
	c-0.002,0.458-0.69,0.5-0.978,0.717c-0.518,0.387-1.161,0.649-1.783,0.81c-1.156,0.299-2.875,0.33-3.807-0.497
	c-0.973-0.863-1.177-1.557-1.005-2.843c0.098-0.736,0.618-1.488,1.114-2.016c0.538-0.572,1.049-0.636,1.77-0.787
	c0.884-0.186,0.433-1.242-0.309-1.245c-0.555-0.003-1.101-0.234-1.588-0.473c-0.625-0.306-2.083-0.366-2.222-1.17
	c-0.017-0.097,0.013-1.171-0.413-0.791c-0.201,0.18-0.051,0.684-0.312,0.788c-0.364,0.145-1.125-0.387-1.446-0.517
	c-0.417-0.168-0.854-0.4-1.286-0.514c-1.216-0.329-0.941-1.026-0.805-2.095c0.109-0.859,0.13-1.954,1.182-1.916
	c0.952,0.035,2.233,0.322,2.902,1.067c0.593,0.661-0.112,1.413-0.158,2.102c-0.029,0.442,0.458,0.396,0.571,0.056
	c0.132-0.396,0.167-0.988,0.473-1.302c0.309-0.318,2.451,1.108,2.844,1.312c0.792,0.41,1.643,0.73,2.503,0.962
	c1.077,0.291,2.193,0.604,3.304,0.729c0.394,0.045,2.129-0.095,2.335,0.249C53.879,27.048,53.695,28.551,53.404,28.953z
	 M55.344,24.021c-0.688,0.141-0.639-0.203-0.701-0.795c-0.034-0.324-0.442-1.312,0.276-1.075c0.28,0.092,2.857,1.155,2.83,1.269
	C57.675,23.756,55.641,23.96,55.344,24.021z M60.439,22.484c-0.589,0.265-1.718-0.402-2.282-0.643
	c-0.669-0.285-1.333-0.596-1.987-0.91c-0.782-0.375-1.602-0.688-2.3-1.217c-0.647-0.49-0.656-1.205-1.049-1.849
	c-0.217-0.378-1.1-1.357-1.1-1.803c0-0.522-0.421-0.734,0.291-0.849c0.82-0.132,1.644-0.248,2.464-0.377
	c0.567-0.09,1.137-0.157,1.709-0.199c0.248-0.019,0.75,0.032,0.972-0.121c0.335-0.245,1.442-0.139,1.867-0.195
	c0.801-0.107,1.604-0.191,2.405-0.291c0.961-0.119,1.913-0.299,2.874-0.421c0.785-0.1,1.158-0.167,1.107,0.724
	C65.227,17.351,63.335,21.186,60.439,22.484z M80.455,15.515c-0.055,0.52-0.041,0.963-0.296,1.434
	c-0.271,0.499-0.387,0.907-0.561,1.426c-0.111,0.331-0.767,0.716-0.767,0.978c0,0.399-1.312,1.213-1.597,1.433
	c-0.61,0.468-1.329,0.876-2.03,1.186c-0.991,0.437-2.029,0.66-3.075,0.894c-0.631,0.141-1.237,0.323-1.883,0.391
	c-0.491,0.051-1.014-0.026-1.483,0.154c-0.666,0.252-1.533,0.112-2.221,0.099c-0.959-0.018-1.941-0.059-2.895-0.157
	c-0.162-0.017-1.008-0.061-1.007-0.352c0.003-0.291,0.68-0.798,0.855-0.972c0.583-0.576,1.215-1.25,1.622-1.965
	c0.955-1.698,1.493-3.528,1.773-5.457c0.039-0.263-0.016-1.113,0.237-1.262c0.298-0.176,0.698-0.259,1.037-0.312
	c0.73-0.114,1.655,1.106,2.246,1.458c1.26,0.751,5.231,0.219,4.212-2c-0.572-1.207-1.243-1.055-2.416-0.789
	c-0.672,0.152-2.224,0.682-2.895,0.341c-0.704-0.357-0.135-1.864,0.22-2.268c0.717-0.814,1.433-1.305,2.451-1.664
	c1.898-0.668,4.179-0.138,5.873,0.81c2.034,1.138,2.825,2.722,2.866,5.011C80.732,14.466,80.511,14.985,80.455,15.515z
	 M71.347,12.665c0.569-0.084,1.233-0.484,1.819-0.236c1.094,0.463,0.376,1.448-0.487,1.57c-0.855,0.119-1.771,0.043-2.475-0.529
	C69.455,12.862,70.976,12.719,71.347,12.665z"/>
</svg>
