<?xml version="1.0" encoding="utf-8"?>
<!-- Generator: Adobe Illustrator 15.0.0, SVG Export Plug-In . SVG Version: 6.00 Build 0)  -->
<!DOCTYPE svg PUBLIC "-//W3C//DTD SVG 1.1 Basic//EN" "http://www.w3.org/Graphics/SVG/1.1/DTD/svg11-basic.dtd">
<svg version="1.1" baseProfile="basic" id="Layer_1"
	 xmlns="http://www.w3.org/2000/svg" xmlns:xlink="http://www.w3.org/1999/xlink" x="0px" y="0px" width="69.818px"
	 height="67.439px" viewBox="0 0 69.818 67.439" xml:space="preserve">
<g>
	<path fill="none" stroke="#FFFFFF" stroke-width="6" stroke-miterlimit="10" d="M66,46.087C66,56.532,57.532,65,47.087,65H22.913
		C12.468,65,4,56.532,4,46.087V21.913C4,11.468,12.468,3,22.913,3h24.174C57.532,3,66,11.468,66,21.913V46.087z"/>
	
		<linearGradient id="SVGID_1_" gradientUnits="userSpaceOnUse" x1="600" y1="7.9995" x2="662" y2="7.9995" gradientTransform="matrix(4.371139e-08 -1 1 4.371139e-08 27.0005 665.0005)">
		<stop  offset="0" style="stop-color:#000000"/>
		<stop  offset="1" style="stop-color:#BDCCD4"/>
	</linearGradient>
	<path fill="url(#SVGID_1_)" d="M66,46.087C66,56.532,57.532,65,47.087,65H22.913C12.468,65,4,56.532,4,46.087V21.913
		C4,11.468,12.468,3,22.913,3h24.174C57.532,3,66,11.468,66,21.913V46.087z"/>
	<path fill="none" stroke="#000000" stroke-width="2" stroke-miterlimit="10" d="M66,46.087C66,56.532,57.532,65,47.087,65H22.913
		C12.468,65,4,56.532,4,46.087V21.913C4,11.468,12.468,3,22.913,3h24.174C57.532,3,66,11.468,66,21.913V46.087z"/>
</g>
</svg>
