<?xml version="1.0" encoding="utf-8"?>
<!-- Generator: Adobe Illustrator 15.0.0, SVG Export Plug-In . SVG Version: 6.00 Build 0)  -->
<!DOCTYPE svg PUBLIC "-//W3C//DTD SVG 1.1 Basic//EN" "http://www.w3.org/Graphics/SVG/1.1/DTD/svg11-basic.dtd">
<svg version="1.1" baseProfile="basic" id="Layer_1"
	 xmlns="http://www.w3.org/2000/svg" xmlns:xlink="http://www.w3.org/1999/xlink" x="0px" y="0px" width="64px" height="64px"
	 viewBox="0 0 64 64" xml:space="preserve">
<g opacity="0.73">
	<path fill="none" stroke="#FFFFFF" stroke-width="6" stroke-miterlimit="10" d="M63,44.087C63,54.532,54.532,63,44.087,63H19.913
		C9.468,63,1,54.532,1,44.087V19.913C1,9.468,9.468,1,19.913,1h24.174C54.532,1,63,9.468,63,19.913V44.087z"/>
	<path fill="#FFFFFF" d="M63,44.087C63,54.532,54.532,63,44.087,63H19.913C9.468,63,1,54.532,1,44.087V19.913
		C1,9.468,9.468,1,19.913,1h24.174C54.532,1,63,9.468,63,19.913V44.087z"/>
</g>
</svg>
