<?xml version="1.0" encoding="utf-8"?>
<!-- Generator: Adobe Illustrator 15.0.0, SVG Export Plug-In . SVG Version: 6.00 Build 0)  -->
<!DOCTYPE svg PUBLIC "-//W3C//DTD SVG 1.1//EN" "http://www.w3.org/Graphics/SVG/1.1/DTD/svg11.dtd">
<svg version="1.1" id="Layer_1" xmlns="http://www.w3.org/2000/svg" xmlns:xlink="http://www.w3.org/1999/xlink" x="0px" y="0px"
	 width="640px" height="480px" viewBox="0 0 640 480" enable-background="new 0 0 640 480" xml:space="preserve">
<rect y="-1" fill="#D3D3D3" width="640" height="481"/>
<g id="layer1_1_" transform="translate(-57.64428,-51.922262)" inkscape:groupmode="layer" inkscape:label="Layer 1" opacity="0.25">
	<linearGradient id="SVGID_1_" gradientUnits="userSpaceOnUse" x1="57.6443" y1="291.4223" x2="697.6443" y2="291.4223">
		<stop  offset="0" style="stop-color:#000000"/>
		<stop  offset="1" style="stop-color:#BDCCD4"/>
	</linearGradient>
	<path fill="url(#SVGID_1_)" d="M286.427,527.553c-0.19-2.508-1.038-5.812-1.896-7.354c-0.847-1.539-2.366-6.121-3.367-10.191
		c-0.998-4.062-3.073-10.49-4.602-14.281c-1.533-3.789-2.772-7.771-2.757-8.85c0.019-1.074-0.359-3.58-0.836-5.566
		c-1.04-4.273-0.772-5.516,1.631-7.574c1.259-1.082,3.538-1.258,7.643-0.594v0.004c3.218,0.512,6.433,1.285,7.147,1.707
		c2.208,1.316,4.335,6.311,4.206,9.891c-0.073,1.889,0.188,6.852,0.576,11.035c0.389,4.188,0.708,8.947,0.712,10.578
		c0.017,7.271,0.888,14.041,2.654,20.6c0.447,1.65,0.897,3.392,1.287,4.965h25.768c-0.511-2.054-0.97-4.735-1.204-7.24
		c-0.386-4.115-1.315-10.119-2.063-13.342c-0.749-3.227-1.6-8.467-1.878-11.643c-0.289-3.172-0.759-7.805-1.039-10.293
		c-0.79-6.795-0.471-10.168,1.072-11.475c1.5-1.271,22.387-0.613,29.331,0.922c2.305,0.51,4.736,1.562,5.393,2.334
		c1.227,1.445-1.899,40.432-3.439,42.914c-0.445,0.717-0.589,2.656-0.326,4.309c0.114,0.716,0.178,1.984,0.193,3.514h14.75
		c0.256-8.062,2.255-22.995,3.794-26.375c0.964-2.133,1.827-5.443,1.914-7.363c0.079-1.914,0.87-5.195,1.737-7.287
		c0.868-2.092,2.069-3.754,2.668-3.693c0.604,0.064,1.506,1.992,2.021,4.289c0.519,2.297,1.28,5.566,1.702,7.254
		c0.422,1.695,1.179,6.588,1.668,10.869c0.501,4.287,1.728,13.062,2.731,19.492c0.152,0.975,0.297,1.905,0.437,2.814h7.069
		c-1.212-6.652-2.278-13.871-3.046-20.771c-0.559-4.979-1.429-10.816-1.937-12.961c-0.505-2.152-0.604-4.176-0.222-4.5
		c0.389-0.326,0.185-2.232-0.452-4.232c-1.296-4.082-1.049-5.625,1.202-7.562c1.211-1.041,2.44-0.805,5.572,1.076
		c3.875,2.316,5.413,3.729,6.202,5.701c0.202,0.512,0.897,1.926,1.542,3.145c0.651,1.219,1.244,4.299,1.325,6.842
		c0.076,2.547,0.867,8.225,1.754,12.617c1.235,6.151,2.064,13.605,2.351,20.646h7.799c-1.713-9.61-4.025-28.661-3.77-31.191
		c0.138-1.344,0.003-2.723-0.291-3.07c-1.192-1.41-0.473-8.348,0.997-9.584c0.872-0.725,3.774-1.193,6.461-1.041
		c3.729,0.205,5.337,0.824,6.793,2.615c2.235,2.762,5.018,15.242,5.634,25.275c0.242,3.893,0.9,9.527,1.469,12.52
		c0.335,1.764,0.531,3.22,0.551,4.477h8.523c-0.512-1.344-0.812-3.495-1.077-6.654c-0.367-4.449-1.313-9.305-2.104-10.793
		c-0.792-1.492-1.146-2.947-0.803-3.242c0.354-0.295,0.055-4.002-0.658-8.24c-1.582-9.381-0.901-12.637,2.794-13.424
		c1.414-0.307,3.151-0.16,3.855,0.326l0.001,0.004c5.443,3.688,5.925,4.492,6.252,10.412c0.176,3.23,0.225,6.508,0.109,7.289
		c-0.332,2.176,0.927,11.158,2.032,14.566c1.289,3.984-0.08,7.307-3.974,9.656c-0.06,0.036-0.112,0.064-0.171,0.1h33.125
		c-0.052-0.845,0.568-1.386,1.827-2.453c1.95-1.648,3.054-1.896,4.956-1.092c1.354,0.571,3.011,1.926,4.565,3.545h9.381
		c-1.385-2.164-2.514-4.613-2.521-5.494c-0.026-2.451,3.053-3.879,5.74-2.656c4.909,2.221,7.278,5.154,6.803,8.15h34.171
		c-3.853-2.416-5.901-5.002-5.542-7.049c0.42-2.367,3.756-3.029,7.508-1.479c1.587,0.654,2.94,1.307,3.014,1.445
		c0.893,1.832,1.898,5.233,2.157,7.082h15.748c1.39-1.352,3.366-2.517,5.211-2.744c3.097-0.385,4.476,1.05,4.073,2.744h54.449
		c0.45-1.367,0.996-2.963,1.652-4.848c1.377-3.975,2.753-9.584,3.045-12.467c0.298-2.875,1.015-5.633,1.598-6.129
		c0.58-0.494,1.79-3.291,2.692-6.223c1.86-6.098,3.887-7.176,7.301-3.887c1.669,1.613,1.903,3.021,1.316,7.762
		c-0.395,3.184-1.235,6.234-1.875,6.775c-0.631,0.537-1.375,3.264-1.644,6.049c-0.27,2.791-0.828,6.367-1.244,7.947
		c-0.664,2.533,0.292,5.596,1.444,4.623c1.115-0.949,7.016-13.949,7.333-16.156c0.198-1.377,1.195-4.469,2.219-6.869
		c1.016-2.4,2.184-5.635,2.587-7.205c1.23-4.771,4.123-7.713,7.312-7.449c1.52,0.123,3.139,0.68,3.61,1.24
		c1.217,1.436-0.013,8.451-2.906,16.664c-1.367,3.869-2.527,8.271-2.574,9.768c-0.049,1.502-1.001,4.611-2.112,6.912
		c-0.454,0.931-0.939,2.169-1.393,3.492h7.229c0.071-0.184,0.138-0.359,0.209-0.545c2.679-6.922,5.65-15.619,6.607-19.324
		c2.102-8.121,4.992-14.83,7.087-16.475c0.85-0.666,3.719-1.549,6.386-1.963c5.356-0.85,6.847-0.414,6.389,1.873
		c-0.28,1.395-1.062,2.596-5.286,8.111c-0.81,1.053-2.327,3.711-3.371,5.898c-1.042,2.189-2.046,4.105-2.224,4.262
		c-0.187,0.15-1.067,3.566-1.969,7.586c-0.833,3.707-2.186,8.245-3.142,10.576h20.859v-47.036c-0.758,0.181-1.723,0.209-2.936,0.108
		c-3.466-0.289-3.449-0.277-7.084-9.639c-0.894-2.316-3.136-7.967-4.971-12.562c-1.83-4.592-3.766-10.199-4.292-12.459
		c-0.533-2.254-1.839-5.137-2.898-6.4c-2.458-2.895-5.506-13.07-4.476-14.945c0.423-0.775,2.331-1.824,4.231-2.328
		c3.085-0.811,3.705-0.607,5.674,1.889c1.225,1.541,3.231,5.303,4.466,8.355c1.235,3.049,2.876,6.975,3.642,8.713
		c0.768,1.742,1.446,4.461,1.507,6.033c0.071,1.574,0.705,3.549,1.412,4.395c0.712,0.84,1.548,3.146,1.862,5.127
		c0.309,1.971,1.098,4.221,1.751,4.994c0.569,0.674,1.355,2.542,2.111,4.773v-23.734c-0.245-0.461-0.497-0.932-0.767-1.428
		c-1.017-1.867-3.033-6.502-4.482-10.303c-1.441-3.791-3.066-7.445-3.614-8.115c-0.542-0.67-1.04-2.24-1.116-3.494
		c-0.104-1.982,0.729-2.961,6.317-7.482c1.146-0.925,2.408-1.866,3.662-2.747v-11.134c-0.956,0.368-2.008,0.67-3.14,0.875
		c-4.485,0.826-9.732-1.287-13.22-5.303c-4.369-5.029-21.507-15.898-23.039-14.604c-2.044,1.729,1.936,6.604,16.07,19.711
		c6.386,5.924,7.228,7.311,5.812,9.572c-3.766,5.996-16.075,0.08-27.285-13.113c-4.185-4.934-9.638-9.479-20.354-16.969
		c-2.453-1.709-3.17-2.83-4.032-6.32c-2.223-8.941,0.898-9.135,14.368-0.867c7.404,4.547,11.002,6.26,11.975,5.705
		c2.178-1.254,0.457-3.863-6.009-9.068c-7.776-6.279-9.543-8.467-11.208-13.898c-1.094-3.559-1.026-4.824,0.331-5.975
		c3.294-2.791,7.12-0.682,22.642,12.498c11.468,9.734,14.061,11.818,16.016,12.887c1.13,0.613,2.656,1.836,3.399,2.713
		c0.744,0.873,3.448,2.754,6.02,4.17c2.573,1.418,5.443,3.492,6.386,4.607c0.881,1.041,3.179,2.594,5.27,3.584v-10.035
		c-0.917-0.677-2.013-1.371-3.017-1.887c-3.74-1.906-16.684-11.904-23.505-18.156c-2.52-2.309-6.299-5.189-8.397-6.402
		c-2.102-1.211-4.412-2.883-5.142-3.721c-0.726-0.832-3.428-2.764-5.993-4.283c-5.574-3.307-6.769-5.992-4.433-9.955
		c1.747-2.961,10.466-10.602,12.346-10.811c2.396-0.275,5.622,1.639,10.703,6.355c9.308,8.654,22.859,20.033,27.438,23.126V346.57
		c-5.969-5.604-12.505-10.844-16.875-13.509c-9.691-5.924-10.122-9.684-1.043-9.195c2.993,0.16,8.144,0.205,11.455,0.096
		c1.925-0.064,4.315-0.025,6.463,0.08v-41.906c-0.685-0.239-1.364-0.476-2.007-0.702c-3.341-1.18-10.384-3.396-15.662-4.926
		c-5.27-1.537-9.748-2.971-9.941-3.199c-0.966-1.139-25.676-5.262-30.379-5.07c-1.65,0.068-7.843-0.285-13.749-0.789
		c-5.901-0.49-12.732-0.787-15.171-0.648c-2.436,0.143-6.022,0.184-7.965,0.084c-12.652-0.607-19.592-0.238-25.342,1.352
		c-3.608,0.996-7.883,1.863-9.498,1.938c-4.895,0.203-7.083,0.947-14.042,4.783c-7.721,4.24-11.49,5.9-17.162,7.527
		c-4.917,1.412-8.495,4.264-8.482,6.752c0.039,2.732,2.362,3.498,6.436,2.121c2-0.682,4.812-1.486,6.27-1.783
		c1.45-0.307,3.979-1.275,5.612-2.15c6.982-3.748,11.141-1.756,11.634,5.555c0.503,7.57-0.894,9.545-8.787,12.443
		c-1.828,0.666-6.663,2.436-10.75,3.941c-4.085,1.492-8.209,2.895-9.168,3.109c-0.95,0.209-3.141,0.896-4.855,1.52
		c-4.529,1.637-6.09,0.668-8.423-5.238c-2.519-6.369-1.973-9.973,1.851-12.273c3.258-1.961,4.715-4.9,3.273-6.6
		c-1.197-1.41-5.29-2.092-6.481-1.076c-0.479,0.393-2.005,0.268-3.408-0.289c-2.331-0.918-2.709-1.623-4.244-7.902
		c-0.927-3.787-2.132-9.584-2.688-12.869c-1.702-10.172-4.348-20.189-6.918-26.226c-1.354-3.188-2.429-6.807-2.394-8.043
		c0.088-2.511-6.243-24.294-7.481-25.781c-0.433-0.514-1.575-3.852-2.548-7.414c-0.969-3.561-2.051-6.817-2.392-7.221
		c-0.341-0.408-1.394-3.587-2.341-7.069c-0.943-3.49-2.033-7.066-2.408-7.949c-1.274-2.932,0.672-4.663,4.414-3.93
		c1.919,0.374,3.822,1.075,4.229,1.554c0.845,0.994,24.813,3.114,30.998,2.751c8.521-0.51,13.662-2.61,18.828-7.714
		c2.61-2.567,7.558-6.463,10.991-8.64c5.286-3.357,6.834-4.805,10.064-9.384c2.1-2.98,4.212-6.935,4.693-8.792
		c0.474-1.847,1.951-7.207,3.274-11.911c3.188-11.285,4.585-19.887,3.793-23.284c-0.363-1.516-1.005-5.528-1.442-8.915
		c-0.441-3.392-1.938-8.552-3.337-11.47c-1.395-2.921-3.762-7.9-5.252-11.077c-2.371-5.027-3.544-6.525-9.188-11.708
		c-3.557-3.276-6.705-6.642-7.007-7.491c-0.528-1.521-4.911-4.162-11.573-6.958c-0.11-0.046-0.228-0.1-0.341-0.15h-32.855
		c1.011,0.322,2.021,0.579,2.912,0.717c7.437,1.156,17.472,5.21,25.017,10.101c5.218,3.375,19.234,18.623,23.903,25.983
		c3.138,4.955,3.518,6.602,3.596,15.519c0.04,4.985-2.625,19.42-3.774,20.389c-0.214,0.185-1.245,2.103-2.282,4.257
		c-1.678,3.491-2.979,4.745-11.75,11.342c-10.884,8.184-12.243,8.796-26.431,11.87c-16.572,3.583-28.142,1.645-35.395-5.94
		c-3.981-4.172-6.753-5.029-11.399-3.54c-5.886,1.885-7.724,11.311-3.243,16.598c2.803,3.308,7.408,13.875,7.855,18.042
		c0.465,4.225,2.633,11.938,3.735,13.236c0.532,0.624,1.778,4,2.777,7.505s2.092,7.071,2.442,7.937
		c1.276,3.18-0.889,7.337-6.158,11.801c-3.984,3.385-4.951,4.659-4.738,6.204c0.452,3.284,3.483,3.485,7.863,0.506
		c7.147-4.871,7.938-4.198,11.053,9.334c1.248,5.385,2.951,11.449,3.786,13.475c0.832,2.019,1.563,4.828,1.632,6.232
		c0.056,1.411,0.88,4.338,1.837,6.52c2.408,5.549,2.918,7.707,2.733,11.744c-0.138,3.105-0.588,3.807-3.812,5.988
		c-2.003,1.369-7.51,5.191-12.232,8.504c-11.594,8.15-18.694,12.141-27.11,15.273c-3.904,1.447-5.664,0.201-12.271-8.73
		c-5.508-7.439-7.066-11.367-9.185-23.205c-2.192-12.236-1.947-14.581,2.048-19.681c3.77-4.814,3.006-4.363,18.814-11.146
		c5.007-2.151,6.776-4.261,5.967-7.125c-0.959-3.393-3.249-3.317-9.787,0.339c-4.464,2.493-6.651,3.462-13.012,5.769
		c-4.466,1.615-6.341,0.184-7.199-5.535c-0.412-2.75-0.765-7.599-0.777-10.789c-0.016-3.177-0.822-8.55-1.778-11.935
		c-0.961-3.384-1.993-8.373-2.303-11.101c-0.49-4.507-3.887-18.414-5.607-23.013c-0.386-1.042-1.136-3.207-1.651-4.815
		c-1.345-4.147-3.89-10.227-7.299-17.419c-1.614-3.415-4.64-9.797-6.722-14.186c-2.079-4.393-4.789-9.918-6.025-12.28
		c-3.48-6.625-15.271-23.173-18.651-26.172c-1.665-1.47-3.087-3.237-3.161-3.931c-0.257-2.436,1.664-5.621,5.121-8.522
		c4.181-3.499,22.659-15.043,24.535-15.324c0.727-0.103,3.896-1.912,7.041-4.009c4.852-3.237,15.241-7.954,22.611-10.283
		c1.075-0.339,5.13-1.06,9.008-1.607c3.878-0.545,7.941-1.745,9.025-2.668c1.091-0.923,4.465-1.851,8.059-2.229h-25.505
		c-1.018,0.336-2.284,0.683-3.555,0.958c-2.55,0.555-6.019,1.803-7.719,2.765c-1.698,0.972-6.202,2.767-10,3.987
		c-7.143,2.305-14.158,5.799-19.968,9.935c-1.842,1.318-5.216,3.13-7.504,4.032c-2.281,0.903-6.441,3.577-9.241,5.943
		c-2.796,2.375-5.992,4.503-7.111,4.746c-2.266,0.481-9.139-2.095-10.845-4.081c-1.252-1.452-4.4-3.355-19.48-11.802
		c-5.821-3.267-12.093-6.461-13.927-7.111c-1.837-0.641-5.769-2.442-8.739-4.001c-2.422-1.274-7.563-3.477-12.457-5.37H164.992
		c-2.211,1.003-4.354,2.031-6.291,3.032c-1.661,0.86-6.226,3.066-10.13,4.9c-3.91,1.833-9.317,4.696-12.008,6.352
		c-2.699,1.662-8.259,4.997-12.35,7.424c-4.095,2.43-10.556,6.673-14.356,9.443c-3.803,2.772-7.701,5.225-8.656,5.445
		C99.017,88.02,86.496,80.234,85.103,77.5c-0.56-1.118-0.603-8.246-0.085-15.863c0.263-3.863,0.375-7.419,0.343-10.715H74.608
		c0.531,5.031-0.247,9.244-2.409,10.002c-2.124,0.745-11.632-4.164-14.555-7.491v14.423c1.419,1.312,2.984,2.937,4.307,4.521
		c4.347,5.208,4.464,5.5,3.414,8.504c-0.811,2.335-2.75,4.552-7.721,8.83v15.861c3.622-2.776,8.855-7.749,15.157-14.443
		c2.89-3.075,3.643-3.434,6.471-3.111c2.305,0.268,4.263,1.413,6.979,4.114c3.409,3.378,3.743,4.071,3.376,7.045
		c-0.402,3.35-9.385,17.711-15.041,24.057c-3.142,3.515-10.12,14.614-11.661,18.549c-0.542,1.374-2.592,5.01-4.551,8.065
		c-0.243,0.379-0.486,0.775-0.729,1.178v32.189c1.361-4.1,3.088-8.371,4.069-10.009c1.105-1.846,2.199-4.449,2.429-5.796
		c0.935-5.486,7.998-19.085,11.423-21.991c0.95-0.799,2.417-3.11,3.259-5.122c0.843-2.02,2.978-5.247,4.742-7.182
		c4.114-4.518,11.713-14.099,13.919-17.59c1.381-2.16,2.606-2.957,6.133-3.995c2.43-0.717,5.239-0.967,6.243-0.565
		c1.004,0.414,5.126,3.542,9.161,6.958c4.034,3.417,8.195,6.875,9.251,7.691c1.055,0.811,4.159,3.498,6.888,5.969
		c2.73,2.465,7.043,6.361,9.588,8.645c2.543,2.282,6.652,6.072,9.133,8.412c2.48,2.337,5.192,4.396,6.033,4.563
		c0.834,0.169,4.753,3.275,8.704,6.905c3.957,3.632,10.466,9.414,14.47,12.855c4.015,3.434,8.797,7.768,10.646,9.628
		c1.834,1.856,4.974,4.604,6.978,6.109c1.996,1.502,4.238,3.803,4.971,5.105c0.74,1.3,3.91,4.374,7.064,6.831
		c3.145,2.459,9.231,7.597,13.528,11.415c10.38,9.248,11.366,12.128,6.735,19.775c-1.139,1.888-2.399,4.686-2.8,6.229
		c-1.279,4.868-6.756,18.109-7.884,19.062c-0.6,0.508-1.363,2.533-1.692,4.512c-0.34,1.967-2.075,6.398-3.859,9.85
		c-1.794,3.445-4.779,9.912-6.638,14.369c-2.837,6.777-3.144,8.391-1.905,9.854c1.958,2.301,4.694,1.109,6.564-2.855
		c0.796-1.699,2.164-4.557,3.037-6.352c0.872-1.791,1.813-3.975,2.088-4.852c0.287-0.883,1.546-3.686,2.797-6.244
		c1.25-2.547,2.451-5.75,2.662-7.113c0.214-1.361,1.496-4.137,2.858-6.164c1.355-2.029,2.797-4.943,3.202-6.486
		c1.106-4.255,7.845-18.69,10.048-21.553c2.505-3.244,6.144-3.749,11.326-1.584c2.132,0.895,4.285,2.106,4.791,2.697
		c0.879,1.042,0.436,9.04-0.55,9.889c-0.265,0.231-0.551,1.222-0.634,2.19c-0.082,0.981-0.582,2.939-1.115,4.364
		c-2.588,6.913-3.436,10.147-4.456,16.975c-0.777,5.248-2.261,9.529-5.083,14.684c-2.192,4.004-4.114,8.113-4.26,9.146
		c-0.151,1.039-1.421,4.025-2.829,6.641c-1.411,2.607-3.635,7.385-4.947,10.598c-1.517,3.691-3.06,6.117-4.208,6.605
		c-2.403,0.992-15.447-4.893-18.304-8.268c-1.191-1.4-4.204-3.566-6.694-4.805c-2.723-1.352-4.959-3.1-5.573-4.354
		c-0.567-1.152-0.467-6.221,0.228-11.264c1.44-10.535,0.508-17.979-3.636-29.004c-2.808-7.469-3.169-8.007-9.174-13.762
		c-3.441-3.296-7.876-6.815-9.863-7.815c-7.285-3.68-18.395-5.389-24.258-3.729c-12.816,3.637-17.275,6.29-24.764,14.76
		c-2.788,3.161-6.152,6.949-7.47,8.421c-2.865,3.186-3.297,10.295-0.979,16.031c1.934,4.787,7.441,8.664,12.704,8.947
		c2.04,0.104,4.054,0.598,4.472,1.092c0.719,0.848,7.189,3.811,15.958,7.312c2.196,0.873,5.926,2.471,8.287,3.545
		c2.358,1.066,6.388,2.84,8.952,3.934c7.589,3.236,8.283,7.641,2.597,16.457c-1.474,2.289-3.459,5.705-4.397,7.592
		c-2.017,4.039-10.242,11.318-14.754,13.055c-10.241,3.934-32.886,4.889-43.461,1.818c-5.478-1.594-14.254-6.887-17.214-10.379
		c-1.176-1.389-4.287-3.939-6.907-5.678c-6.142-4.061-10.304-9.021-13.285-15.822c-3.744-8.541-7.422-15.576-8.294-15.863
		c-1.083-0.353-3.685-7.232-6.049-14.857v27.623c3.972,7.565,9.798,16.089,17.139,24.947c4.005,4.834,17.543,17.438,20.953,19.51
		c15.077,9.176,25.479,15.885,26.483,17.064c0.652,0.77,3.86,2.699,7.133,4.293c3.27,1.588,8.911,4.855,12.528,7.258
		c3.619,2.406,9.117,6.027,12.206,8.047c5.088,3.324,6.661,4.979,16.339,17.207c13.271,16.775,15.392,21.176,17.326,35.887
		c0.834,6.396,0.411,11.955-1.018,13.242c-1.759,1.588-0.637,7.057,2.113,10.299c3.31,3.906,5.51,4.883,12.146,5.354
		c2.817,0.203,5.473,0.787,5.905,1.297c0.437,0.51,3.286,1.904,6.339,3.096c5.368,2.084,9.6,2.541,27.769,2.965
		c13.528,0.318,18.13,2.646,19.281,9.756c0.29,1.805,1.433,5.256,2.55,7.664c1.115,2.412,2.514,6.816,3.109,9.789
		c0.599,2.969,1.644,6.068,2.33,6.885c0.677,0.814,1.644,3.209,2.139,5.322c0.497,2.117,1.432,4.924,2.086,6.242
		c0.646,1.32,1.855,4.795,2.668,7.717c0.757,2.677,1.956,5.571,2.801,6.805h9.33C286.88,530.673,286.543,529.061,286.427,527.553z
		 M316.406,413.11c-1.143-1.348-1.207-32.174-0.078-33.131c0.529-0.447,1.901-0.732,3.055-0.639
		c1.155,0.092,2.713,0.896,3.457,1.775c1.845,2.18,1.35,10.994-0.964,17.188c-1.05,2.791-2.269,7.256-2.706,9.906
		C318.313,413.381,317.64,414.573,316.406,413.11z M326.319,316.305c1.704-3.234,3.755-7.531,4.558-9.557
		c0.804-2.018,2.078-3.898,2.832-4.158c2.319-0.812,5.877,1.51,10.28,6.711c3.807,4.492,4.156,5.275,3.59,8.031
		c-0.765,3.758-10.107,26.096-11.354,27.154c-0.497,0.422-2.312,4.055-4.034,8.074c-2.327,5.441-2.813,7.676-1.903,8.756
		c0.797,0.932,1.853,1.049,2.995,0.332c3.492-2.199,10.61-15.027,17.733-31.936l2.978-7.088l2.902,0.238
		c2.281,0.191,4.031,1.361,8.066,5.41c3.11,3.115,5.349,5.99,5.629,7.248c0.562,2.436-3.038,11.514-6.349,16.018
		c-3.486,4.752-6.945,10.99-11.045,19.904c-4.422,9.615-6.109,10.684-12.726,8.027c-2.434-0.975-5.351-1.893-6.493-2.047
		c-1.143-0.154-2.506-0.791-3.04-1.414c-0.534-0.625-3.255-2.193-6.044-3.482c-2.793-1.287-5.862-3.258-6.809-4.375
		c-2.35-2.752-2.921-9.875-1.804-22.529C317.223,334.887,318.528,331.092,326.319,316.305z M319.046,303.461
		c0.158-4.223,2.045-7.824,4.544-8.701c1.895-0.662,2.588,0.273,2.195,2.951c-0.34,2.309-3.739,10.334-4.736,11.186
		C319.833,309.926,318.9,307.399,319.046,303.461z M336.922,462.256c-0.481,4.479-1.424,5.822-4.861,6.898
		c-3.507,1.107-11.979-0.385-13.688-2.41c-1.261-1.482-1.311-9.562-0.13-22.428c0.881-9.672,2.414-19.562,3.132-20.164
		c1.062-0.895,4.876-13.395,6.229-20.398c1.652-8.561,3.667-13.246,6.143-14.279c1.821-0.764,6.627,1.104,12.613,4.902
		c6.391,4.053,6.678,6.084,2.776,19.51c-1.173,4.014-2.495,10.941-2.943,15.391c-0.451,4.447-1.428,8.598-2.166,9.219
		c-0.734,0.629-1.622,3.055-1.97,5.4c-0.347,2.342-0.908,4.506-1.249,4.811C339.897,449.506,337.328,458.485,336.922,462.256z
		 M374.225,411.325c-0.485,4.002-4.92,22.963-6.796,29.084c-0.852,2.773-2.312,7.502-3.241,10.518
		c-0.932,3.014-1.95,7.26-2.264,9.438c-0.93,6.449-2.106,9.48-4.452,11.471c-1.865,1.58-2.557,1.594-4.423,0.121
		c-1.214-0.961-3.911-1.861-5.998-1.984c-4.995-0.305-6.372-2.096-4.48-5.816c0.83-1.643,1.658-5.848,1.841-9.346
		c0.176-3.492,0.978-7.953,1.772-9.91c0.801-1.957,1.252-4.113,1.013-4.799c-0.237-0.686,0.35-2.834,1.305-4.777
		c0.955-1.947,1.978-4.242,2.268-5.111c0.291-0.869,1.352-3.645,2.355-6.174c1.006-2.529,2.128-6.156,2.488-8.061
		c1.993-10.416,6.002-14.121,12.219-11.307C373.783,407.366,374.605,408.223,374.225,411.325z M377.388,387.803
		c-1.949,1.611-4.592,3.996-5.883,5.295c-2.24,2.262-2.592,2.266-7.683,0.053c-7.083-3.068-9.529-5.947-8.45-9.93
		c0.992-3.67,5.935-12.365,9.357-16.453c1.357-1.621,3.695-5.789,5.193-9.258c6.79-15.699,7.317-16.252,11.976-12.607
		c1.666,1.301,3.733,2.229,4.596,2.059l-0.004,0.002c2.625-0.512,3.102,1.189,1.883,6.764c-0.645,2.928-1.489,7.037-1.891,9.129
		c-0.4,2.092-1.814,7.902-3.143,12.91C381.193,383.868,380.539,385.186,377.388,387.803z M383.097,454.678
		c-0.96-0.078-1.24-2.262-0.392-2.984c0.376-0.32,0.947-0.27,1.26,0.102C384.689,452.645,384.052,454.754,383.097,454.678z
		 M385.311,449.514c-1.155-0.111-1.406-0.846-1.011-2.988c0.289-1.562,0.813-3.08,1.168-3.379c0.356-0.305,1.187,0.092,1.85,0.873
		C388.881,445.868,387.485,449.713,385.311,449.514z M404.412,458.159c-0.347,0.287-1.281,3.85-2.079,7.908
		c-0.788,4.057-1.864,8.062-2.393,8.893c-1.344,2.146-11.271,4.377-12.583,2.832c-1.866-2.211-1.248-10.096,1.25-15.783
		c2.233-5.102,2.953-8.455,5.392-25.15c0.965-6.627,2.047-10.025,3.649-11.439c0.583-0.516,3.564-0.467,6.612,0.113
		c3.053,0.582,5.919,1.486,6.369,2.016c1.452,1.715,0.13,9.826-2.677,16.424c-1.501,3.545-2.779,8.064-2.824,10.049
		C405.075,456.002,404.756,457.866,404.412,458.159z M432.079,448.149c-0.575,3.35-1.36,6.355-1.749,6.682
		c-0.387,0.326-1.079,3.045-1.537,6.041c-1.281,8.357-3.534,15.646-5.304,17.137c-1.984,1.689-8.424,2.717-10.884,1.746
		c-1.012-0.404-2.68-1.709-3.692-2.912c-1.604-1.893-1.566-3.176,0.268-9.584c1.172-4.066,3.622-12.877,5.45-19.59
		c1.915-7.01,4.017-12.637,4.925-13.23c0.884-0.566,2.683-0.549,3.996,0.045c1.319,0.592,4.014,2.539,5.985,4.328l3.591,3.254
		L432.079,448.149z M422.388,424.928c-1.501-2.104-1.333-2.881,2.002-9c2.008-3.674,5.455-8.996,7.652-11.822
		c3.551-4.566,4.358-5.225,7.147-5.869c1.937-0.443,3.613-0.152,4.384,0.754c0.693,0.814,1.982,1.803,2.865,2.207
		c2.531,1.135,3.87,4.137,3.225,7.264c-0.317,1.574-2.566,6.934-4.998,11.9l-4.406,9.031l-3.685,0.76
		C432.223,431.051,424.813,428.323,422.388,424.928z M469.01,401.289c0.896-3.174,1.992-4.523,7.344-9.062
		c5.174-4.381,6.703-5.268,8.603-5.018c2.761,0.369,4.735,2.455,4.785,5.045c0.064,3.371-6.125,10.635-11.595,13.602
		C470.7,409.891,467.094,408.088,469.01,401.289z M473.18,436.789c-3.612,5.188-5.903,6.947-8.57,6.6
		c-5.634-0.754-5.747-7.312-0.269-14.941c2.733-3.801,3.156-4.088,6.546-4.367C477.862,423.491,478.804,428.717,473.18,436.789z
		 M471.628,387.971l-9.856,9.404l-3.244-0.268c-2.368-0.191-4.279-1.266-7.105-3.977c-4.425-4.248-4.944-2.666,4.61-14.096
		c6.696-7.994,13.337-13.521,16.002-13.299c2.26,0.188,5.686,4.195,7.865,9.197l1.589,3.631L471.628,387.971z M456.97,367.868
		c-4.7,4.541-9.546,9.432-10.771,10.881c-1.625,1.912-2.833,2.582-4.447,2.451c-3.404-0.285-6.048-2.607-6.421-5.646
		c-0.363-2.945,1.677-5.602,11.102-14.438c2.898-2.717,6.238-6.363,7.423-8.098c2.901-4.279,4.187-5.254,6.661-5.047
		c1.972,0.164,4.411,2.475,5.846,5.549C467.677,356.321,465.514,359.612,456.97,367.868z M450.12,460.854
		c-0.458,4.246-1.197,8.033-1.65,8.422c-0.456,0.385-1.415,2.881-2.143,5.541c-1.639,6.014-3.941,8.098-8.039,7.268
		c-1.711-0.352-3.366-0.934-3.67-1.301c-0.914-1.072,0.439-13.816,1.562-14.766c0.562-0.475,1.02-1.76,1.007-2.846
		c-0.006-1.09,0.376-2.855,0.859-3.936c0.477-1.074,1.694-3.961,2.698-6.402c1.675-4.066,2.017-4.438,4.051-4.379
		c1.242,0.035,3.101,1.088,4.188,2.371C450.575,452.702,450.791,454.58,450.12,460.854z M450.27,436.131
		c-5.259-0.17-5.171-3.432,0.322-12.006c2.058-3.211,4.383-6.869,5.158-8.119c1.084-1.748,1.925-2.215,3.594-1.988
		c4.335,0.578,4.453,2.609,0.576,10.014c-1.676,3.207-3.646,6.324-4.379,6.947c-0.733,0.619-1.624,2.053-1.984,3.188
		C453.01,435.858,452.432,436.204,450.27,436.131z M457.612,463.489c2.215-6.619,3.087-8.203,4.524-8.219
		c0.979-0.006,2.824,1.215,4.114,2.732c2.139,2.525,2.193,3.35,0.725,10.027c-1.868,8.496-3.977,12.482-7.688,14.525
		c-2.042,1.125-3.084,1.082-4.427-0.158C452.785,480.459,453.432,475.993,457.612,463.489z M469.871,522.045
		c-0.268,0.281-0.998,1.143-1.621,1.908c-1.49,1.834-7.121,1.33-8.897-0.801c-1.387-1.668-1.81-4.236-3.357-20.498
		c-0.934-9.77,0.085-11.963,5.373-11.525c2.266,0.188,4.021,1.062,5.365,2.676c2.507,3.02,2.939,5.162,2.536,12.51
		c-0.18,3.221-0.008,7.969,0.384,10.549C470.039,519.432,470.137,521.768,469.871,522.045z M474.603,482.53
		c-2.391-2.83-2.434-4.846-0.239-10.553c0.963-2.494,2.076-5.596,2.481-6.902c0.664-2.127,1.066-2.348,4.041-2.199
		c1.813,0.098,3.604,0.527,3.975,0.971c1.271,1.494,1.158,5.961-0.304,12.148C482.466,484.875,478.691,487.348,474.603,482.53z
		 M485.469,517.207c-2.255,2.33-5.121,2.889-6.485,1.281c-0.885-1.047-2.144-10.619-1.612-12.26
		c0.182-0.561-0.098-2.854-0.626-5.094c-0.996-4.248,0.611-7.006,3.942-6.732c2.819,0.23,4.063,2.904,5.506,11.859
		C487.44,513.981,487.354,515.26,485.469,517.207z M488.643,439.594c-0.153,1.834-1.043,3.979-1.973,4.764
		c-0.929,0.797-1.749,2.115-1.821,2.949c-0.181,2.174-4.223,3.848-6.244,2.586c-4.031-2.533-1.912-9.861,3.894-13.48
		C486.358,434.012,488.99,435.381,488.643,439.594z M488.354,421.047c-5.943-0.262-8.412-2.361-8.593-7.312
		c-0.081-2.283,0.559-3.742,2.269-5.191c3.791-3.219,11.213-7.129,12.663-6.678c3.096,0.965,4.279,3.975,3.632,9.238
		c-0.634,5.189-0.565,5.428,2.222,7.027c3.531,2.02,5.597,4.355,5.13,5.793c-0.22,0.688,0.731,1.449,2.599,2.1
		c2.699,0.936,3.028,1.314,3.871,4.398c0.506,1.855,1.338,4.098,1.854,4.982c1.348,2.33-0.127,3.219-2.186,1.324
		c-0.962-0.896-3.136-1.611-4.816-1.6c-3.705,0.027-4.667-1.967-2.755-5.697c0.757-1.469,1.192-2.887,0.964-3.158
		c-1.009-1.188-3.816-0.594-6.01,1.264c-2.685,2.275-4.509,1.164-4.729-2.898C494.282,421.401,494.109,421.299,488.354,421.047z
		 M527.63,391.161c0.928,1.09-0.368,4.037-3.517,7.979c-1.952,2.451-3.352,5.043-3.097,5.762c0.601,1.721,3.727,2.232,5.336,0.877
		c1.861-1.584,4.113-0.854,5.608,1.803c1.915,3.391,0.791,5.256-4.81,7.973c-5.633,2.742-9.62,2.445-11.311-0.824
		c-0.624-1.205-2.592-4.592-4.373-7.521c-5.396-8.891-5.453-9.051-3.593-10.625c0.937-0.799,3.284-1.941,5.217-2.561
		c1.936-0.609,4.283-1.762,5.214-2.551c0.93-0.793,3.343-1.268,5.36-1.055C525.675,390.625,527.457,390.957,527.63,391.161z
		 M528.023,347.034c0.869-1.852,2.396-2.797,8.033-4.986c8.434-3.271,14.024-4.908,16.901-4.947
		c2.155-0.027,2.446,0.152,3.136,1.861c0.204,0.506,0.925,1.98,1.607,3.268c1.475,2.785-0.1,7.262-3.545,10.143
		c-1.318,1.107-5.017,2.557-8.208,3.223c-6.581,1.383-9.133,2.057-11.39,3.006C530.546,360.291,525.763,351.827,528.023,347.034z
		 M521.318,447.055c-0.215,2.623-1.289,2.809-2.832,0.486c-0.873-1.311-1.035-2.693-0.393-3.488
		C519.341,442.514,521.527,444.547,521.318,447.055z M492.073,484.08c-0.818-0.959,1.41-11.947,2.63-12.982
		c1.451-1.229,2.958,2.047,2.545,5.535C496.479,483.139,494.133,486.522,492.073,484.08z M497.123,510.955
		c-1.277,0.445-1.815,0-2.916-2.414c-1.312-2.863-1.069-10.027,0.375-11.252c1.445-1.227,3.424,2.807,3.286,6.693
		c-0.082,2.203,0.074,4.547,0.336,5.213C498.481,509.885,498.026,510.643,497.123,510.955z M505.005,481.065
		c-0.1-0.633,0.291-1.547,0.87-2.039c1.394-1.178,3.559,1.488,2.605,3.223C507.663,483.748,505.283,482.936,505.005,481.065z
		 M509.295,509.668c-0.96,0.811-2.088,1.074-2.5,0.566c-1.308-1.572-0.859-10.617,0.531-10.828
		C510.705,498.897,512.286,507.137,509.295,509.668z M511.975,525.328c-2.229-3.713-1.616-6.848,1.288-6.574
		c3.176,0.299,5.865,2.785,6.118,5.666C519.839,529.649,514.939,530.252,511.975,525.328z M517.322,486.032
		c-0.489-0.578-0.398-1.459,0.198-1.971c1.09-0.914,2.779,0.268,2.652,1.867C520.063,487.174,518.343,487.235,517.322,486.032z
		 M525.399,471.26c-1.065,0.012-2.529-0.674-3.25-1.518c-0.72-0.84-2.855-2.053-4.752-2.684c-1.9-0.627-4.123-1.932-4.937-2.895
		c-0.864-1.021-3.129-1.836-5.415-1.949c-2.838-0.141-4.774-0.975-6.991-3.041c-1.687-1.566-4.383-3.113-5.987-3.443
		c-1.603-0.326-3.231-0.963-3.619-1.424c-0.851-1.004,3.639-8.098,5.277-8.346c1.498-0.221,3.781,2.432,2.805,3.258
		c-0.406,0.348-0.428,1.729-0.047,3.07c0.615,2.18,1.194,2.48,5.24,2.713c3.73,0.209,5.443,0.984,9.549,4.32
		c2.745,2.24,5.061,4.508,5.142,5.029c0.08,0.529,2.022,1.656,4.32,2.496C527.332,468.538,528.965,471.223,525.399,471.26z
		 M535.376,439.584c-0.153,0.477-0.933,0.949-1.741,1.072c-1.741,0.266-2.283-1.855-0.795-3.111
		C533.942,436.612,535.846,438.149,535.376,439.584z M532.422,431.022c-3.328,2.863-3.927,3.049-6.395,1.957
		c-1.534-0.68-3.196-2.178-3.817-3.439c-1.056-2.137-0.927-2.35,3.081-4.928c2.3-1.48,5.311-2.838,6.7-3.012
		C537.749,420.864,537.994,426.233,532.422,431.022z M533.879,387.069c1.994-3.881,7.17-6.111,14.988-6.463
		c7.408-0.336,10.187,1.266,8.703,5.002c-0.916,2.318-2.081,3.023-9.759,5.902C538.201,395.12,530.926,392.799,533.879,387.069z
		 M544.34,461.34c-0.633,0.539-1.587,0.463-2.114-0.166c-0.532-0.635-0.474-1.35,0.133-1.592
		C544.074,458.893,545.616,460.262,544.34,461.34z M544.355,423.631c-0.143-2.934,2.568-5.971,5.14-5.758
		c4.031,0.328,7.678,2.25,7.538,3.959C556.583,427.297,544.625,428.989,544.355,423.631z M558.141,402.955
		c-0.161,4.25-0.512,5.041-2.672,6.006c-1.369,0.613-3.515,1.887-4.777,2.818c-1.259,0.93-2.676,1.951-3.15,2.275
		c-1.119,0.754-5.267-1.215-7.099-3.375c-1.199-1.42-1.054-9.746,0.188-10.791c0.956-0.816,14.11-4.027,15.148-3.701
		C557.949,396.852,558.333,397.954,558.141,402.955z M572.421,520.446c-0.188,2.203-3.669,2.828-5.261,0.947
		c-0.996-1.176-0.812-1.756,0.931-2.922C570.439,516.901,572.63,517.909,572.421,520.446z M593.966,527.879
		c-0.395,1.215-2.678,0.781-2.575-0.494c0.037-0.451,0.711-0.762,1.498-0.705C593.845,526.762,594.203,527.159,593.966,527.879z
		 M632.714,505.422c-1.088,3.826-2.22,7.152-2.51,7.402c-0.286,0.248-0.892,2.113-1.343,4.15c-0.947,4.271-4.556,10.74-7.313,13.107
		c-2.167,1.857-4.209,1.113-5.793-2.111c-0.809-1.648-0.646-2.4,0.663-3.029c2.438-1.168,4.084-5.105,2.781-6.646
		c-1.79-2.111-5.763-1.281-7.059,1.471c-0.871,1.842-1.412,2.219-2.642,1.836c-2.431-0.768-3.001-1.895-3.014-6.002
		c-0.012-3.127-0.346-3.891-1.806-4.154c-0.987-0.176-2.396,0.191-3.129,0.812c-0.732,0.621-2.184,0.795-3.217,0.381
		c-1.519-0.6-1.95-1.838-2.174-6.301c-0.228-4.471-0.624-5.604-2.037-5.85c-1.246-0.223-2.445,0.49-4.179,2.51
		c-2.317,2.701-2.566,2.756-5.639,1.189c-2.861-1.463-3.361-2.074-4.562-5.611c-1.326-3.883-0.95-5.979,0.709-4.018
		c1.688,1.996,6.802,2.195,9.939,0.395c6.531-3.758,19.872-3.873,24.466-0.217c5.074,4.039,5.891,4.213,11.211,2.33
		c4.228-1.486,5.583-1.533,6.94-0.227C634.388,498.168,634.34,499.709,632.714,505.422z M607.486,374.618
		c-2.723-0.258-6.904-1.045-9.3-1.758c-2.392-0.701-7.869-1.373-12.167-1.49c-7.632-0.201-16.111-2.168-17.757-4.109
		c-0.919-1.078,0.293-10.908,1.467-11.904c0.965-0.814,12.334,0.344,13.182,1.346c0.357,0.416,5.171,1.211,10.716,1.773
		c5.544,0.557,14.067,1.717,18.939,2.568c4.879,0.842,8.925,1.615,8.977,1.713c0.059,0.092,0.26,1.021,0.441,2.059
		c0.265,1.504-0.662,2.73-4.609,6.072C612.62,374.926,612.248,375.059,607.486,374.618z M626.754,410.776
		c1.521,1.447,5.819,4.789,9.55,7.434c8.42,5.977,14.538,11.928,13.997,13.6c-0.596,1.822-4.902,5.213-7.271,5.727
		c-2.97,0.637-5.008-0.92-28.859-22.088c-2.684-2.389-5.107-4.965-5.376-5.742c-0.27-0.77,0.25-2.857,1.157-4.639
		c1.466-2.865,1.892-3.221,3.812-3.158C615.902,401.977,621.46,405.768,626.754,410.776z M570.838,379.504
		c2.468-1.758,4.333-1.777,15.637-0.162c7.06,1.006,14.957,2.201,17.562,2.664c2.607,0.449,4.877,0.988,5.052,1.188
		c0.911,1.078-2.524,9.279-4.626,11.068c-1.584,1.336-29.271-0.92-33.845-2.766c-1.533-0.617-3.105-1.887-3.49-2.828
		C565.996,385.969,567.714,381.727,570.838,379.504z M601.344,420.498c1.421-1.201,3.344-1.922,4.604-1.727
		c1.198,0.188,5.44,3.156,9.439,6.602c3.999,3.447,9.319,8.244,11.831,10.676c4.09,3.953,4.48,4.605,3.782,6.367
		c-0.894,2.26-6.396,5.197-8.523,4.541c-2.755-0.85-7.619-4.064-12.104-8.023c-2.566-2.26-5.965-5.252-7.543-6.646
		C598.67,428.616,598.004,423.329,601.344,420.498z M610.675,447.692c2.086,2.939,2.355,3.906,1.301,4.801
		c-2.904,2.461-9.718-2.078-15.261-10.176c-3.195-4.672-2.807-5.906,1.687-5.342C601.535,437.366,606.266,441.493,610.675,447.692z
		 M601.532,457.719l0.042,2.959l-5.646-0.439l-5.643-0.441l-1.863-4.373c-2.504-5.885-0.739-8.146,4.597-5.9
		C599.197,452.137,601.489,454.338,601.532,457.719z M589.119,463.743c1.649,1.938,0.099,3.357-3.377,3.068
		c-2.646-0.217-3.456-0.658-3.355-1.844c0.092-1.174,0.816-1.635,2.995-1.902C586.961,462.871,588.641,463.17,589.119,463.743z
		 M659.588,484.944c-3.526-0.293-13.01-13.227-14.488-19.77c-0.966-4.248-2.569-6.723-3.44-5.291
		c-0.311,0.506-0.251,2.316,0.125,4.031c1.076,4.885,1.103,5.053,1.883,11.826c0.574,4.951,0.327,6.77-1.065,7.951
		c-2.424,2.051-4.217,0.867-5.783-3.828c-1.216-3.641-3.925-7.82-4.662-7.197c-1.359,1.148-2.322,5.289-1.993,8.549
		c0.336,3.232,0.068,3.984-1.558,4.334c-2.862,0.613-5.421-0.68-7.905-3.99l-2.188-2.93l-3.183,2.564
		c-4.626,3.729-5.795,3.291-7.682-2.891c-2.256-7.381-2.436-10.146-0.752-11.568c1.338-1.129,1.705-0.869,4.353,2.996
		c1.702,2.488,3.479,4.285,4.284,4.352c2.167,0.18,3.588-3.824,2.866-8.057c-0.413-2.393-0.118-3.998,0.824-4.539
		c1.189-0.664,2.284,0.07,5.838,3.902c3.114,3.371,4.773,4.594,5.777,4.236c2.011-0.697,2.251-3.508,0.553-6.654
		c-2.716-5.049-1.162-9.652,3.012-8.914c3.921,0.699,5.757-0.322,6.423-3.588c0.811-3.975,2.626-5.453,5.729-4.639
		c2.731,0.721,3.178,1.15,4.597,4.527c1.953,4.615,5.198,10.619,6.705,12.387c0.843,1.006,1.214,2.408,0.821,3.131
		c-0.817,1.498,0.529,9.328,2.19,12.707C661.963,480.809,661.101,485.067,659.588,484.944z M676.928,472.463
		c0.556,2.861,1.475,5.742,2.038,6.412c2.427,2.857-0.002,6.646-3.932,6.121c-3.28-0.436-6.251-4.361-8.688-11.484
		c-1.152-3.385-2.755-6.918-3.554-7.865c-0.799-0.949-1.545-3.428-1.652-5.508c-0.113-2.088-1.074-6.234-2.151-9.221
		c-2.415-6.705-2.294-13.049,0.282-14.678c2.935-1.85,5.267,1.516,10.746,15.525C675.02,464.547,675.908,467.215,676.928,472.463z
		 M645.273,400.922c5.35,5.516,11.479,11.438,13.613,13.17c4.193,3.387,4.924,4.193,5.541,6.072c0.612,1.852-3.259,4.604-6.65,4.73
		c-3.374,0.119-5.322-1.203-13.867-9.402c-10.732-10.311-16.393-15.27-19.035-16.691c-3.123-1.689-5.324-5.484-5.708-9.861
		c-0.357-3.996,0.968-5.141,4.654-4.045C629.935,386.704,635.542,390.895,645.273,400.922z M568.822,287.717
		c2.193-3.592,6.885-4.645,11.859-2.676c1.859,0.73,4.591,1.488,6.084,1.678c1.497,0.191,5.143,1.502,8.097,2.906
		c2.968,1.406,8.57,3.619,12.45,4.914c3.884,1.295,8.672,3.541,10.636,4.986c1.963,1.445,5.819,4.053,8.559,5.793
		c4.899,3.09,8.9,6.953,8.779,8.457c-0.038,0.412,1.367,3.375,3.11,6.576c1.751,3.193,3.579,6.602,4.063,7.561
		c1.067,2.117-0.59,7.318-2.984,9.352c-0.95,0.811-3.123,4.043-4.821,7.188c-5.019,9.305-9.249,11.48-18.601,9.588
		c-2.462-0.5-8.541-1.17-13.504-1.492c-4.964-0.318-12.096-1.354-15.853-2.295c-7.439-1.881-10.883-2.199-14.413-1.326
		c-4.045,0.986-4.819-1.092-4.549-12.248c0.141-5.934,0.082-10.996-0.146-11.26c-0.218-0.266-0.281-3.656-0.141-7.541
		c0.149-3.887,0.004-9.43-0.32-12.316C566.241,297.647,566.885,290.881,568.822,287.717z M565.46,403.383
		c0.811-4.576,3.281-5.541,10.848-4.219c3.84,0.672,10.413,1.477,14.601,1.781c4.183,0.309,8.025,1.053,8.536,1.658
		c1.023,1.207-1.261,5.664-4.173,8.137c-1.877,1.588-10.61,1.939-22.145,0.9c-4.427-0.402-5.393-0.85-6.651-3.088
		C565.672,407.12,565.215,404.789,565.46,403.383z M565.287,418.282c1.507-2.256,2.252-2.629,4.99-2.49
		c1.767,0.096,3.597,0.623,4.061,1.17c0.468,0.551,3.936,1.348,7.705,1.768c3.768,0.414,7.293,1.262,7.816,1.893
		c1.752,2.062-0.541,9.75-3.715,12.473c-1.586,1.359-3.758,4.334-4.831,6.627c-1.275,2.699-2.896,4.729-4.653,5.781
		c-1.973,1.188-2.874,2.475-3.353,4.812c-0.649,3.213-2.888,6.002-3.881,4.836c-1.596-1.881-2.996-9.789-2.079-11.734
		c1.359-2.885-0.073-15.57-2.2-19.484C563.832,421.506,563.851,420.428,565.287,418.282z M556.186,368.825
		c-1.661,2.104-8.199,5.592-14.472,7.725c-2.713,0.922-8.055-1.256-9.303-3.795c-1.635-3.309,0.384-5.953,5.939-7.785
		c2.675-0.883,6.132-1.762,7.676-1.953c1.546-0.188,4.511-0.816,6.587-1.391C558.449,359.991,560.274,363.678,556.186,368.825z
		 M524.814,322.598c1.845-1.562,12.104-4.801,13.634-4.303c0.554,0.182,3.511-1.062,6.568-2.764
		c4.074-2.262,6.355-2.938,8.453-2.504c3.684,0.748,4.276,1.51,4.796,6.203c0.381,3.365,0.019,4.256-2.865,7.035
		c-2.151,2.072-4.013,3.164-5.372,3.145c-3.803-0.064-16.702,3.369-18.558,4.938c-1.672,1.422-4.23,1.561-7.379,0.404
		C522.266,334.08,522.844,324.268,524.814,322.598z M522.637,373.53c0.919,1.086,1.184,2.82,0.687,4.484
		c-0.701,2.385-1.613,3.229-7.478,6.926c-10.24,6.459-12.139,7.045-15.074,4.666c-2.815-2.289-3.994-5.992-2.344-7.381
		c0.606-0.512,2.337-1.246,3.853-1.635c1.517-0.385,4.906-1.801,7.52-3.148c2.616-1.342,6.24-3.17,8.057-4.062
		C520.53,372.073,521.422,372.098,522.637,373.53z M515.264,353.463c2.086-0.15,3.633,2.021,3.241,4.564
		c-0.727,4.797-1.93,6.338-8.083,10.332c-12.715,8.275-16.819,8.672-21.038,2.025c-1.315-2.061-2.363-4.062-2.332-4.447
		c0.031-0.387,1.381-0.939,2.991-1.234c1.608-0.285,5.528-2.076,8.699-3.975C504.709,357.161,512.691,353.647,515.264,353.463z
		 M510.985,346.698c-2.831,2.342-10.054,6.084-16.339,8.459c-4.869,1.836-7.498,3.775-7.26,5.361
		c0.577,3.832-6.631,0.043-7.992-4.201c-1.176-3.67-0.067-6.982,2.27-6.789c0.97,0.076,6.131-2.547,11.47-5.828
		c5.347-3.289,11.369-6.344,13.38-6.797C513.398,335.375,516.485,342.135,510.985,346.698z M507.856,324.454
		c-0.33,2.893-0.85,3.508-6.358,7.537c-3.296,2.414-8.435,5.789-11.419,7.508c-2.995,1.715-6.964,4.449-8.82,6.082
		c-3.057,2.662-3.6,2.814-5.397,1.521c-2.39-1.713-5.129-7.598-4.691-10.076c0.239-1.359,1.343-2.32,4.84-4.174
		c2.493-1.326,8.829-4.717,14.086-7.545c5.259-2.818,10.99-5.457,12.736-5.859C506.671,318.569,508.338,320.241,507.856,324.454z
		 M455.213,307.883c4.671-3.48,12.761-7.898,15.692-8.574c4.509-1.031,13.421-5.809,17.965-9.617
		c2.196-1.846,4.895-3.775,5.994-4.293c1.675-0.789,2.395-0.455,4.482,2.09c3.137,3.83,6.265,10.426,6.726,14.197
		c0.668,5.375-4.37,9.557-21.628,17.967c-12.321,6.004-18.847,8.609-21.275,8.49c-2.888-0.143-7.085-6.27-8.757-12.801
		C453.068,310.131,453.147,309.428,455.213,307.883z M421.043,335.36c0.756-2.533,1.793-6.801,2.304-9.479
		c0.888-4.621,5.418-12.633,9.161-16.201c1.599-1.523,1.954-1.391,5.052,1.852c4.821,5.064,4.626,7.637-1.122,14.584
		c-5.191,6.281-15.448,15.422-16.244,14.48C419.902,340.246,420.281,337.893,421.043,335.36z M417.19,358.741
		c0.687-2.961,4.545-7.504,15.729-18.518c2.611-2.568,6.167-6.184,7.913-8.025c1.961-2.078,3.825-3.367,4.902-3.379
		c2.244-0.02,6.561,5.16,7.312,8.783c0.757,3.619-0.021,5.078-5.981,11.25c-20.243,20.996-18.813,19.945-25.025,18.354
		C417.933,366.161,416.186,363.102,417.19,358.741z M406.076,384.688c0.594-0.506,1.998-3.092,3.121-5.752
		c2.001-4.748,4.514-7.865,5.453-6.758c0.831,0.988,0.978,5.658,0.196,6.318c-0.417,0.355-2.396,4.268-4.396,8.699
		c-2.004,4.426-4.378,8.68-5.291,9.447c-2.084,1.768-2.756,4.727-1.533,6.773c0.688,1.152,1.656,1.246,3.612,0.334
		c2.161-1,3.789-3.287,8.455-11.895l5.783-10.646l2.713,0.51c1.693,0.318,3.705,1.686,5.381,3.672
		c3.315,3.912,3.074,4.922-4.145,17.105c-2.95,4.982-5.424,9.623-5.489,10.305c-0.193,1.887-2.85,3.777-6.593,4.699
		c-2.441,0.6-4.793,0.125-8.608-1.709c-7.524-3.643-8.852-6.68-6.276-14.328C400.961,394.065,404.677,385.871,406.076,384.688z
		 M349.672,119.267c2.974,1.604,11.021,9.917,10.918,11.277c-0.057,0.568,1.667,3.54,3.819,6.618
		c8.933,12.757,12.434,19.179,15.362,28.186c0.35,1.068,1.369,3.189,2.26,4.707c0.898,1.509,2.11,4.4,2.71,6.401
		c0.6,2,1.368,4.522,1.703,5.599c0.868,2.739,7.542,27.85,8.088,30.425c1.556,7.373,3.14,20.838,3.21,27.359
		c0.053,4.207,0.233,9.646,0.398,12.092c1.062,15.48,1.1,23.507,0.15,32.755c-0.595,5.754-1.054,11.146-1.023,11.986
		c0.102,3.551-2.461,27.996-2.983,28.436c-0.317,0.264-0.698,1.572-0.86,2.902c-0.165,1.336-0.787,3.838-1.389,5.562
		c-1.059,3.006-1.172,3.109-2.845,2.41c-0.962-0.4-4.027-3.01-6.804-5.805c-2.786-2.797-7.614-7.068-10.738-9.49
		c-3.337-2.59-6.548-5.824-7.792-7.834c-2.174-3.508-2.722-3.934-14.718-11.34c-5.473-3.377-7.715-5.311-10.174-8.77
		c-2.387-3.367-4.026-4.816-6.772-5.977c-2.648-1.121-4.958-3.111-8.56-7.365c-5.657-6.676-6.612-10.168-4.77-17.533
		c0.588-2.369,0.999-6.879,0.894-10.009c-0.097-3.133,0.042-10.414,0.315-16.178c0.613-13.194,0.398-27.411-0.525-33.72
		c-0.393-2.674-0.515-7.264-0.285-10.198c0.236-2.934-0.003-6.734-0.528-8.454c-0.528-1.722-0.899-6.433-0.83-10.477
		c0.071-4.044-0.162-8.633-0.514-10.2c-0.618-2.702,1.07-11.93,3.167-17.353c1.098-2.844,4.934-7.331,14.673-17.162
		C343.995,119.258,346.642,117.633,349.672,119.267z M299.661,82.568c1.488-0.842,9.195,3.456,11.869,6.604
		c1.063,1.254,4.282,3.834,7.155,5.743c2.875,1.906,6.921,4.699,8.983,6.204c4.827,3.518,4.834,3.521,4.462,6.254
		c-0.218,1.645-1.65,3.46-4.946,6.257c-2.548,2.171-5.842,5.81-7.317,8.095c-3.657,5.661-6.869,7.3-9.116,4.65
		c-0.94-1.104-1.756-3.329-1.814-4.936c-0.056-1.603-0.995-5.636-2.084-8.948c-1.09-3.327-2.1-7.473-2.253-9.229
		c-0.151-1.759-0.939-4.63-1.752-6.391C300.096,90.927,298.392,83.281,299.661,82.568z M239.396,315.746
		c2.561-2.723,3.785-1.715,3.313,2.74c-0.426,4.135-2.18,6.184-4.289,5.027C236.509,322.465,237.045,318.245,239.396,315.746z
		 M172.458,289.75c-1.954-0.916-5.056-1.955-6.917-2.316c-2.148-0.416-4.181-1.613-5.613-3.318c-1.335-1.584-4.988-3.863-9.01-5.631
		c-15.819-6.91-17.022-8.133-14.337-14.541c2.141-5.123,6.605-8.838,11.201-9.309c9.122-0.939,12.784,0.047,20.14,5.43
		c2.059,1.51,4.349,3.486,5.081,4.393c2.037,2.52,4.904,11.445,5.79,18.014C179.803,289.995,177.821,292.274,172.458,289.75z
		 M250.269,462.03c-1.108,0.939-5.333,1.016-13.112,0.24c-19.6-1.961-21.893-2.146-26.649-2.16
		c-7.483-0.025-9.233-4.568-4.658-12.074c2.803-4.6,6.263-17.348,6.821-25.111c0.656-9.119-5.197-25.305-12.161-33.645
		c-3.01-3.613-11.683-10.945-17.237-14.588c-1.589-1.041-3.997-3.188-5.356-4.771c-2.527-2.949-9.269-6.705-11.454-6.381
		c-0.666,0.104-4.348-1.18-8.18-2.85c-3.831-1.668-9.289-3.857-12.13-4.865c-7.979-2.83-7.954-2.814-7.444-4.938
		c0.397-1.633,1.504-2.299,6.509-3.928c6.133-1.984,9.546-3.438,15.67-6.701c1.878-1.008,5.399-2.795,7.812-3.98
		c5.247-2.57,12.859-8.961,15.976-13.398c4.5-6.424,8.545-11.197,9.883-11.662c2.2-0.773,20.742,8.318,27.77,13.611
		c1.283,0.965,3.998,2.295,6.043,2.953c2.045,0.662,5.083,2.002,6.751,2.975c6.622,3.871,6.608,3.795,5.795,30.494
		c-0.419,13.941-0.229,20.963,0.682,24.379c0.492,1.857,1.018,5.732,1.165,8.613c0.148,2.871,1.122,10.035,2.167,15.912
		c1.051,5.873,1.78,11.367,1.625,12.217c-0.157,0.85,0.929,7.584,2.405,14.971C252.187,453.455,252.541,460.11,250.269,462.03z
		 M292.816,327.268c-0.316,3.707-0.619,8.992-0.68,11.754c-0.145,6.605-0.914,10.055-2.568,11.459
		c-1.641,1.385-2.893,1.121-8.812-1.865c-10.161-5.123-14.509-7.832-15.048-9.371c-0.89-2.541,1.919-11.084,4.704-14.332
		c1.392-1.619,6.527-12.406,11.412-23.977c4.889-11.564,9.345-21.096,9.902-21.176c1.697-0.254,1.937,0.668,1.941,7.68
		c-0.002,3.725,0.011,9.51,0.029,12.873C293.744,310.239,293.422,320.071,292.816,327.268z M264.276,322.327
		c0.206,1.441-3.793,6.234-4.215,5.049c-0.189-0.535,0.24-5.232,0.945-10.443c0.717-5.209,1.512-11.064,1.776-13.008
		c0.263-1.953,1.065-6.348,1.774-9.766c0.722-3.416,1.454-9.928,1.656-14.465c0.193-4.545,1.095-9.688,2.003-11.441
		c0.905-1.75,1.822-4.738,2.035-6.646c0.702-6.238,8.334-13.394,9.801-9.193c0.265,0.751,2.109,2.236,4.106,3.285
		c1.995,1.064,4.288,2.711,5.095,3.662c2.074,2.447,1.852,8.617-0.439,12.354c-1.818,2.957-5.973,12.715-6.532,15.342
		c-0.134,0.646-2.427,4.869-5.099,9.385c-2.667,4.512-5.359,9.93-5.987,12.035c-0.622,2.113-2.47,5.873-4.102,8.359
		C265.465,319.321,264.201,321.795,264.276,322.327z M292.074,209.213c2.84-2.406,3.783-1.153,3.54,4.711
		c-1.12,26.991-1.564,31.519-3.204,33.276c-1.596,1.701-2.107,1.602-6.398-1.238c-4.625-3.066-4.673-3.12-5.148-7.199
		c-0.451-3.849,1.76-11.603,3.797-13.326c0.491-0.424,0.937-1.918,0.986-3.325c0.044-1.404,0.51-2.92,1.035-3.365
		c0.52-0.439,1.556-2.436,2.3-4.426C289.724,212.325,291.114,210.024,292.074,209.213z M257.474,225.475
		c-1.73-0.893-3.495-2.316-13.491-10.927c-2.398-2.066-7.956-6.583-12.351-10.032c-8.783-6.903-16.594-13.898-24.23-21.71
		c-2.743-2.8-5.713-5.228-6.603-5.395c-0.887-0.165-3.664-2.567-6.173-5.333c-4.313-4.752-7.602-7.771-18.764-17.208
		c-2.621-2.214-7.121-6.233-10.003-8.915c-7.428-6.926-13.361-12.046-23.259-20.052c-8.649-6.997-13.503-11.128-20.113-17.12
		c-3.014-2.731-3.493-3.593-3.204-5.763c0.29-2.188,1.327-3.3,7.373-7.943c10.577-8.117,21.01-14.821,25.701-16.506
		c2.307-0.828,6.689-2.508,9.749-3.737c3.056-1.23,8.047-2.931,11.091-3.78c3.039-0.849,8.6-2.912,12.358-4.584
		c3.763-1.674,9.1-3.289,11.865-3.591c2.77-0.305,6.557-1.055,8.417-1.678c1.869-0.623,4.216-1.154,5.216-1.177
		c1.006-0.032,6.146-0.225,11.426-0.447c11.402-0.466,19.497,0.154,28.11,2.167c3.48,0.807,7.597,1.505,9.162,1.55
		c1.562,0.038,4.037,0.569,5.509,1.174c4.253,1.754,5.903,4.383,6.548,10.447c0.174,1.61,1.517,6.06,2.995,9.887
		c1.472,3.82,3.445,11.057,4.372,16.079c0.936,5.016,2.38,11.058,3.221,13.427c0.832,2.364,1.514,5.159,1.513,6.212
		c-0.005,1.045,0.685,4.384,1.518,7.406c2.022,7.317,2.887,12.156,4.292,23.95c1.423,12.026-0.122,17.6-8.261,29.73
		c-1.432,2.141-3.114,5.111-3.727,6.605c-0.613,1.492-1.849,4.486-2.755,6.646c-4.027,9.626-5.395,13.397-6.226,17.167
		c-0.488,2.224-1.601,4.645-2.471,5.384c-0.876,0.743-2.286,3.013-3.14,5.051C261.488,226.398,260.393,226.979,257.474,225.475z
		 M262.787,429.004c-0.961-1.139-2.102-6.611-2.889-13.885c-0.384-3.562-0.885-6.701-1.112-6.965
		c-0.581-0.691-1.303-10.764-1.594-22.342c-0.134-5.445-0.557-12.906-0.952-16.59c-0.872-8.348,0.065-18.93,1.916-21.514
		c1.94-2.697,4.538-2.254,8.916,1.52c2.01,1.73,5.842,3.959,8.518,4.969c2.674,1,5.493,2.557,6.252,3.451
		c1.606,1.904,0.818,9.789-1.542,15.441c-0.876,2.084-1.58,4.701-1.564,5.818c0.009,1.113-0.74,3.82-1.657,6.014
		c-0.915,2.193-2.093,6.133-2.616,8.746c-0.513,2.621-1.454,6.268-2.081,8.111c-2.091,6.133-6.735,23.988-6.458,24.816
		C266.326,427.776,263.553,429.903,262.787,429.004z M268.366,450.254c0.32-5.264,0.38-9.812,0.122-10.119
		c-0.255-0.297,0.265-2.291,1.155-4.42c0.893-2.125,2.079-5.525,2.643-7.557c0.938-3.348,1.261-4.93,1.97-9.5
		c0.469-3.064,9.051-32.547,10.728-36.865c0.95-2.455,1.648-5.416,1.546-6.586c-0.095-1.17,0.452-2.67,1.23-3.322
		c2.513-2.135,3.373,0.92,2.787,9.922c-0.312,4.842-0.057,10.43,0.576,12.418c0.679,2.146,0.524,11.029-0.381,21.957
		c-0.846,10.094-1.327,20.244-1.075,22.555c0.697,6.379,0.319,23.674-0.546,25.564c-1.396,3.041-13.478,3.908-17.204,1.236
		C268.419,463.036,267.757,460.161,268.366,450.254z"/>
</g>
</svg>
