<?xml version="1.0" encoding="utf-8"?>
<!-- Generator: Adobe Illustrator 15.0.0, SVG Export Plug-In . SVG Version: 6.00 Build 0)  -->
<!DOCTYPE svg PUBLIC "-//W3C//DTD SVG 1.1 Basic//EN" "http://www.w3.org/Graphics/SVG/1.1/DTD/svg11-basic.dtd">
<svg version="1.1" baseProfile="basic" id="Layer_1"
	 xmlns="http://www.w3.org/2000/svg" xmlns:xlink="http://www.w3.org/1999/xlink" x="0px" y="0px" width="88.045px"
	 height="43.519px" viewBox="0 0 88.045 43.519" xml:space="preserve">
<g opacity="0.73">
	<path fill="none" stroke="#FFFFFF" stroke-width="6" stroke-miterlimit="10" d="M85.045,29.26c0,6.149-11.131,11.134-24.861,11.134
		H27.907c-13.73,0-24.861-4.985-24.861-11.134V14.527c0-6.149,11.131-11.134,24.861-11.134h32.277
		c13.73,0,24.861,4.985,24.861,11.134V29.26z"/>
	<path fill="#FFFFFF" d="M85.045,29.26c0,6.149-11.131,11.134-24.861,11.134H27.907c-13.73,0-24.861-4.985-24.861-11.134V14.527
		c0-6.149,11.131-11.134,24.861-11.134h32.277c13.73,0,24.861,4.985,24.861,11.134V29.26z"/>
</g>
</svg>
